<?xml version="1.0" encoding="utf-8"?>
<!-- Generator: Adobe Illustrator 24.3.0, SVG Export Plug-In . SVG Version: 6.00 Build 0)  -->
<svg version="1.1" xmlns="http://www.w3.org/2000/svg" xmlns:xlink="http://www.w3.org/1999/xlink" x="0px" y="0px"
	 viewBox="0 0 810 369" style="enable-background:new 0 0 810 369;" xml:space="preserve">
<style type="text/css">
	.st0{fill:#666666;}
	.st1{fill:url(#SVGID_1_);}
	.st2{fill:url(#SVGID_2_);}
	.st3{fill:url(#SVGID_3_);}
	.st4{fill:url(#SVGID_4_);}
	.st5{fill:url(#SVGID_5_);}
	.st6{fill:url(#SVGID_6_);}
	.st7{fill:url(#SVGID_7_);}
	.st8{fill:url(#SVGID_8_);}
	.st9{fill:url(#SVGID_9_);}
	.st10{fill:url(#SVGID_10_);}
	.st11{fill:url(#SVGID_11_);}
	.st12{fill:url(#SVGID_12_);}
	.st13{fill:url(#SVGID_13_);}
	.st14{fill:url(#SVGID_14_);}
	.st15{fill:url(#SVGID_15_);}
	.st16{fill:url(#SVGID_16_);}
	.st17{fill:url(#SVGID_17_);}
	.st18{fill:url(#SVGID_18_);}
	.st19{fill:url(#SVGID_19_);}
	.st20{fill:url(#SVGID_20_);}
	.st21{fill:url(#SVGID_21_);}
	.st22{fill:url(#SVGID_22_);}
	.st23{fill:url(#SVGID_23_);}
	.st24{fill:url(#SVGID_24_);}
	.st25{fill:url(#SVGID_25_);}
	.st26{fill:url(#SVGID_26_);}
	.st27{fill:url(#SVGID_27_);}
	.st28{fill:url(#SVGID_28_);}
	.st29{fill:url(#SVGID_29_);}
	.st30{fill:url(#SVGID_30_);}
	.st31{fill:url(#SVGID_31_);}
	.st32{fill:url(#SVGID_32_);}
	.st33{fill:url(#SVGID_33_);}
	.st34{fill:url(#SVGID_34_);}
	.st35{fill:url(#SVGID_35_);}
	.st36{fill:url(#SVGID_36_);}
	.st37{fill:url(#SVGID_37_);}
	.st38{fill:url(#SVGID_38_);}
	.st39{fill:url(#SVGID_39_);}
	.st40{fill:url(#SVGID_40_);}
	.st41{fill:url(#SVGID_41_);}
	.st42{fill:url(#SVGID_42_);}
	.st43{fill:url(#SVGID_43_);}
	.st44{fill:url(#SVGID_44_);}
	.st45{fill:url(#SVGID_45_);}
	.st46{fill:url(#SVGID_46_);}
	.st47{fill:url(#SVGID_47_);}
	.st48{fill:url(#SVGID_48_);}
	.st49{fill:url(#SVGID_49_);}
	.st50{fill:url(#SVGID_50_);}
	.st51{fill:url(#SVGID_51_);}
	.st52{fill:url(#SVGID_52_);}
	.st53{fill:url(#SVGID_53_);}
	.st54{fill:url(#SVGID_54_);}
	.st55{fill:url(#SVGID_55_);}
	.st56{fill:url(#SVGID_56_);}
	.st57{fill:url(#SVGID_57_);}
	.st58{fill:url(#SVGID_58_);}
	.st59{fill:url(#SVGID_59_);}
	.st60{fill:url(#SVGID_60_);}
	.st61{fill:url(#SVGID_61_);}
	.st62{fill:url(#SVGID_62_);}
	.st63{fill:url(#SVGID_63_);}
	.st64{fill:url(#SVGID_64_);}
	.st65{fill:url(#SVGID_65_);}
	.st66{fill:url(#SVGID_66_);}
	.st67{fill:url(#SVGID_67_);}
	.st68{fill:url(#SVGID_68_);}
	.st69{fill:url(#SVGID_69_);}
	.st70{fill:url(#SVGID_70_);}
	.st71{fill:url(#SVGID_71_);}
	.st72{fill:url(#SVGID_72_);}
	.st73{fill:url(#SVGID_73_);}
	.st74{fill:url(#SVGID_74_);}
	.st75{fill:url(#SVGID_75_);}
	.st76{fill:url(#SVGID_76_);}
	.st77{fill:url(#SVGID_77_);}
	.st78{fill:url(#SVGID_78_);}
	.st79{fill:url(#SVGID_79_);}
	.st80{fill:url(#SVGID_80_);}
	.st81{fill:url(#SVGID_81_);}
	.st82{fill:url(#SVGID_82_);}
	.st83{fill:url(#SVGID_83_);}
	.st84{fill:url(#SVGID_84_);}
	.st85{fill:url(#SVGID_85_);}
	.st86{fill:url(#SVGID_86_);}
	.st87{fill:url(#SVGID_87_);}
	.st88{fill:url(#SVGID_88_);}
	.st89{fill:url(#SVGID_89_);}
	.st90{fill:url(#SVGID_90_);}
	.st91{fill:url(#SVGID_91_);}
	.st92{fill:url(#SVGID_92_);}
	.st93{fill:url(#SVGID_93_);}
	.st94{fill:url(#SVGID_94_);}
	.st95{fill:url(#SVGID_95_);}
	.st96{fill:url(#SVGID_96_);}
	.st97{fill:#0BA8B1;}
	.st98{fill:#FFFFFF;}
	.st99{opacity:0.25;fill:#FFFFFF;}
	.st100{fill:#0478B1;}
	.st101{opacity:0.56;fill:#FFFFFF;}
	.st102{fill:#395D7F;}
	.st103{opacity:0.25;}
	.st104{opacity:0.35;fill:#FFFFFF;}
	.st105{fill:none;stroke:#808080;stroke-width:0.9674;stroke-linecap:round;stroke-linejoin:round;stroke-miterlimit:10;}
	.st106{fill:none;stroke:#0478B1;stroke-width:1.9349;stroke-miterlimit:10;}
	.st107{fill:none;stroke:#FFFFFF;stroke-width:1.2552;stroke-miterlimit:10;}
	.st108{fill:none;}
</style>
<g id="BACKGROUND_2">
	<g>
		<g>
			<g>
				<path class="st0" d="M118.7,93.2c1.9,0,1.9-2.9,0-2.9C116.8,90.3,116.8,93.2,118.7,93.2L118.7,93.2z"/>
			</g>
		</g>
		<g>
			<g>
				<g>
					<g>
						<radialGradient id="SVGID_1_" cx="350.8635" cy="100.1213" r="269.0374" gradientUnits="userSpaceOnUse">
							<stop  offset="0" style="stop-color:#B3B3B3"/>
							<stop  offset="0.5054" style="stop-color:#E6E6E6"/>
							<stop  offset="1" style="stop-color:#808080"/>
						</radialGradient>
						<path class="st1" d="M231.9,212.3c-0.2,0-0.3-0.1-0.4-0.2c-0.1-0.1-0.1-0.3,0-0.5l37.5-74.8c0.1-0.2,0.3-0.3,0.5-0.3
							c0.2,0,0.4,0.2,0.4,0.4l11.4,67.4c0,0.1,0,0.3-0.1,0.4c-0.1,0.1-0.2,0.2-0.3,0.2L231.9,212.3C232,212.3,232,212.3,231.9,212.3
							z M269.2,138.5l-36.4,72.7l47.5-7.2L269.2,138.5z"/>
					</g>
					<g>
						<radialGradient id="SVGID_2_" cx="350.8637" cy="100.1213" r="269.0376" gradientUnits="userSpaceOnUse">
							<stop  offset="0" style="stop-color:#B3B3B3"/>
							<stop  offset="0.5054" style="stop-color:#E6E6E6"/>
							<stop  offset="1" style="stop-color:#808080"/>
						</radialGradient>
						<path class="st2" d="M269.5,137.4c-0.2,0-0.3-0.1-0.4-0.2l-37.6-43.5c-0.1-0.1-0.1-0.3-0.1-0.5c0.1-0.2,0.2-0.3,0.4-0.3
							l89-15.2c0.2,0,0.4,0.1,0.5,0.2c0.1,0.2,0.1,0.4-0.1,0.6l-51.4,58.7C269.7,137.4,269.6,137.4,269.5,137.4z M232.8,93.8
							l36.7,42.4L319.6,79L232.8,93.8z"/>
					</g>
				</g>
				<g>
					<g>
						<radialGradient id="SVGID_3_" cx="350.8637" cy="100.1213" r="269.0379" gradientUnits="userSpaceOnUse">
							<stop  offset="0" style="stop-color:#B3B3B3"/>
							<stop  offset="0.5054" style="stop-color:#E6E6E6"/>
							<stop  offset="1" style="stop-color:#808080"/>
						</radialGradient>
						<path class="st3" d="M280.9,204.9C280.9,204.9,280.8,204.9,280.9,204.9c-0.3,0-0.4-0.2-0.5-0.4L269,137c0-0.2,0-0.3,0.1-0.4
							c0.1-0.1,0.3-0.2,0.4-0.1l47.2,5.5c0.2,0,0.3,0.1,0.4,0.3c0.1,0.1,0.1,0.3,0,0.5l-35.8,61.9
							C281.2,204.8,281.1,204.9,280.9,204.9z M270.1,137.5l11.1,65.5l34.8-60.1L270.1,137.5z"/>
					</g>
					<g>
						<radialGradient id="SVGID_4_" cx="350.864" cy="100.1214" r="269.0383" gradientUnits="userSpaceOnUse">
							<stop  offset="0" style="stop-color:#B3B3B3"/>
							<stop  offset="0.5054" style="stop-color:#E6E6E6"/>
							<stop  offset="1" style="stop-color:#808080"/>
						</radialGradient>
						<path class="st4" d="M203.6,142.9c-0.2,0-0.3-0.1-0.4-0.2c-0.1-0.2-0.1-0.3,0-0.5l28.3-49c0.1-0.1,0.2-0.2,0.4-0.2
							c0.2,0,0.3,0,0.4,0.2l37.6,43.5c0.1,0.1,0.2,0.3,0.1,0.5c-0.1,0.2-0.2,0.3-0.4,0.3L203.6,142.9
							C203.6,142.9,203.6,142.9,203.6,142.9z M231.9,94.3l-27.5,47.6l64-5.4L231.9,94.3z"/>
					</g>
				</g>
				<g>
					<g>
						<radialGradient id="SVGID_5_" cx="350.8639" cy="100.1214" r="269.0382" gradientUnits="userSpaceOnUse">
							<stop  offset="0" style="stop-color:#B3B3B3"/>
							<stop  offset="0.5054" style="stop-color:#E6E6E6"/>
							<stop  offset="1" style="stop-color:#808080"/>
						</radialGradient>
						<path class="st5" d="M316.7,142.9C316.7,142.9,316.6,142.9,316.7,142.9l-47.3-5.5c-0.2,0-0.3-0.1-0.4-0.3
							c-0.1-0.2,0-0.4,0.1-0.5L320.5,78c0.1-0.2,0.4-0.2,0.5-0.1c0.2,0.1,0.3,0.3,0.3,0.5l-4.2,64.2c0,0.1-0.1,0.3-0.2,0.3
							C316.9,142.9,316.8,142.9,316.7,142.9z M270.4,136.6l45.8,5.3l4.1-62.3L270.4,136.6z"/>
					</g>
					<g>
						<radialGradient id="SVGID_6_" cx="350.8636" cy="100.1213" r="269.0372" gradientUnits="userSpaceOnUse">
							<stop  offset="0" style="stop-color:#B3B3B3"/>
							<stop  offset="0.5054" style="stop-color:#E6E6E6"/>
							<stop  offset="1" style="stop-color:#808080"/>
						</radialGradient>
						<path class="st6" d="M231.9,212.3C231.9,212.3,231.9,212.3,231.9,212.3c-0.2,0-0.4-0.1-0.4-0.3l-28.4-69.3
							c-0.1-0.1,0-0.3,0-0.4c0.1-0.1,0.2-0.2,0.4-0.2l65.9-5.5c0.2,0,0.3,0.1,0.4,0.2c0.1,0.1,0.1,0.3,0,0.5L232.4,212
							C232.3,212.2,232.1,212.3,231.9,212.3z M204.3,142.9l27.7,67.7l36.7-73.1L204.3,142.9z"/>
					</g>
				</g>
			</g>
			<g>
				<g>
					<g>
						<radialGradient id="SVGID_7_" cx="350.8637" cy="100.1216" r="269.0375" gradientUnits="userSpaceOnUse">
							<stop  offset="0" style="stop-color:#B3B3B3"/>
							<stop  offset="0.5054" style="stop-color:#E6E6E6"/>
							<stop  offset="1" style="stop-color:#808080"/>
						</radialGradient>
						<path class="st7" d="M373.4,240.9h-56.6c-0.2,0-0.3-0.1-0.4-0.3c-0.1-0.2-0.1-0.3,0-0.5l45.5-69.8c0.1-0.2,0.3-0.3,0.5-0.2
							c0.2,0,0.3,0.2,0.4,0.4l11.1,69.8c0,0.1,0,0.3-0.1,0.4C373.7,240.8,373.6,240.9,373.4,240.9z M317.8,239.9h55.1l-10.8-68
							L317.8,239.9z"/>
					</g>
					<g>
						<radialGradient id="SVGID_8_" cx="350.8637" cy="100.1213" r="269.0374" gradientUnits="userSpaceOnUse">
							<stop  offset="0" style="stop-color:#B3B3B3"/>
							<stop  offset="0.5054" style="stop-color:#E6E6E6"/>
							<stop  offset="1" style="stop-color:#808080"/>
						</radialGradient>
						<path class="st8" d="M362.4,171.1c-0.1,0-0.2,0-0.3-0.1l-45.5-28.2c-0.2-0.1-0.3-0.3-0.2-0.5c0.1-0.2,0.2-0.4,0.5-0.4h56.6
							c0.2,0,0.3,0.1,0.4,0.2c0.1,0.1,0.1,0.3,0.1,0.4l-11.1,28.2c-0.1,0.1-0.2,0.2-0.3,0.3C362.5,171.1,362.4,171.1,362.4,171.1z
							 M318.6,142.9l43.6,27l10.6-27H318.6z"/>
					</g>
				</g>
				<g>
					<g>
						<radialGradient id="SVGID_9_" cx="350.8637" cy="100.1215" r="269.0373" gradientUnits="userSpaceOnUse">
							<stop  offset="0" style="stop-color:#B3B3B3"/>
							<stop  offset="0.5054" style="stop-color:#E6E6E6"/>
							<stop  offset="1" style="stop-color:#808080"/>
						</radialGradient>
						<path class="st9" d="M373.4,240.9C373.4,240.9,373.4,240.9,373.4,240.9c-0.3,0-0.4-0.2-0.5-0.4l-11.1-69.8
							c0-0.2,0-0.4,0.2-0.5c0.2-0.1,0.3-0.1,0.5,0l39.3,20.8c0.1,0.1,0.2,0.2,0.2,0.3c0,0.1,0,0.3,0,0.4l-28.3,49
							C373.8,240.8,373.6,240.9,373.4,240.9z M363,171.5l10.7,67.5l27.3-47.4L363,171.5z"/>
					</g>
					<g>
						<radialGradient id="SVGID_10_" cx="350.8636" cy="100.1215" r="269.0377" gradientUnits="userSpaceOnUse">
							<stop  offset="0" style="stop-color:#B3B3B3"/>
							<stop  offset="0.5054" style="stop-color:#E6E6E6"/>
							<stop  offset="1" style="stop-color:#808080"/>
						</radialGradient>
						<path class="st10" d="M281.1,204.9c-0.1,0-0.3-0.1-0.4-0.2c-0.1-0.2-0.2-0.4-0.1-0.6l35.8-61.9c0.1-0.1,0.2-0.2,0.3-0.2
							c0.1,0,0.3,0,0.4,0.1l45.5,28.2c0.2,0.1,0.2,0.3,0.2,0.5c0,0.2-0.1,0.3-0.3,0.4l-81.3,33.7
							C281.2,204.8,281.1,204.9,281.1,204.9z M317,143.1l-34.8,60.2l79.1-32.8L317,143.1z"/>
					</g>
				</g>
				<g>
					<g>
						<radialGradient id="SVGID_11_" cx="350.8637" cy="100.1216" r="269.0374" gradientUnits="userSpaceOnUse">
							<stop  offset="0" style="stop-color:#B3B3B3"/>
							<stop  offset="0.5054" style="stop-color:#E6E6E6"/>
							<stop  offset="1" style="stop-color:#808080"/>
						</radialGradient>
						<path class="st11" d="M401.7,191.9c-0.1,0-0.2,0-0.2-0.1l-39.3-20.8c-0.2-0.1-0.3-0.4-0.2-0.6l11.1-28.2
							c0.1-0.2,0.2-0.3,0.4-0.3c0.2,0,0.4,0.1,0.5,0.2l28.3,49c0.1,0.2,0.1,0.4-0.1,0.6C402,191.9,401.8,191.9,401.7,191.9z
							 M363,170.4l37.5,19.8l-26.9-46.7L363,170.4z"/>
					</g>
					<g>
						<radialGradient id="SVGID_12_" cx="350.8637" cy="100.1215" r="269.0377" gradientUnits="userSpaceOnUse">
							<stop  offset="0" style="stop-color:#B3B3B3"/>
							<stop  offset="0.5054" style="stop-color:#E6E6E6"/>
							<stop  offset="1" style="stop-color:#808080"/>
						</radialGradient>
						<path class="st12" d="M316.9,240.9c-0.1,0-0.3-0.1-0.3-0.1l-35.8-36c-0.1-0.1-0.2-0.3-0.1-0.4c0-0.2,0.1-0.3,0.3-0.4
							l81.3-33.7c0.2-0.1,0.4,0,0.6,0.1c0.1,0.2,0.1,0.4,0,0.6l-45.5,69.8C317.2,240.8,317.1,240.9,316.9,240.9
							C316.9,240.9,316.9,240.9,316.9,240.9z M281.9,204.5l34.9,35.1l44.3-67.9L281.9,204.5z"/>
					</g>
				</g>
			</g>
			<g>
				<g>
					<g>
						<radialGradient id="SVGID_13_" cx="350.8636" cy="100.1211" r="269.0378" gradientUnits="userSpaceOnUse">
							<stop  offset="0" style="stop-color:#B3B3B3"/>
							<stop  offset="0.5054" style="stop-color:#E6E6E6"/>
							<stop  offset="1" style="stop-color:#808080"/>
						</radialGradient>
						<path class="st13" d="M192,222.4c0,0-0.1,0-0.1,0l-39.9-8.9c-0.2,0-0.3-0.2-0.4-0.3c-0.1-0.2,0-0.3,0.1-0.5l32.9-35.9
							c0.1-0.1,0.3-0.2,0.5-0.1c0.2,0.1,0.3,0.2,0.3,0.4l7,44.8c0,0.2,0,0.3-0.1,0.4C192.2,222.4,192.1,222.4,192,222.4z M153,212.7
							l38.4,8.6l-6.8-43.1L153,212.7z"/>
					</g>
					<g>
						<radialGradient id="SVGID_14_" cx="350.8635" cy="100.1214" r="269.0377" gradientUnits="userSpaceOnUse">
							<stop  offset="0" style="stop-color:#B3B3B3"/>
							<stop  offset="0.5054" style="stop-color:#E6E6E6"/>
							<stop  offset="1" style="stop-color:#808080"/>
						</radialGradient>
						<path class="st14" d="M185,177.6c-0.1,0-0.2,0-0.3-0.1l-37.9-24.1c-0.2-0.1-0.3-0.3-0.2-0.5s0.2-0.3,0.4-0.4l56.5-10.6
							c0.2,0,0.4,0,0.5,0.2c0.1,0.2,0.1,0.4,0,0.5l-18.6,34.7c-0.1,0.1-0.2,0.2-0.3,0.2C185,177.6,185,177.6,185,177.6z
							 M148.4,153.3l36.4,23.1l17.9-33.3L148.4,153.3z"/>
					</g>
				</g>
				<g>
					<g>
						<radialGradient id="SVGID_15_" cx="350.8641" cy="100.1215" r="269.0378" gradientUnits="userSpaceOnUse">
							<stop  offset="0" style="stop-color:#B3B3B3"/>
							<stop  offset="0.5054" style="stop-color:#E6E6E6"/>
							<stop  offset="1" style="stop-color:#808080"/>
						</radialGradient>
						<path class="st15" d="M192,222.4c-0.1,0-0.2,0-0.3-0.1c-0.1-0.1-0.2-0.2-0.2-0.3l-7-44.8c0-0.2,0.1-0.4,0.2-0.5
							c0.2-0.1,0.4-0.1,0.5,0l47,34.7c0.2,0.1,0.2,0.3,0.2,0.5c0,0.2-0.2,0.3-0.4,0.4l-40,10.2C192.1,222.4,192,222.4,192,222.4z
							 M185.6,178.2l6.8,43.1l38.5-9.8L185.6,178.2z"/>
					</g>
					<g>
						<radialGradient id="SVGID_16_" cx="350.864" cy="100.1215" r="269.0377" gradientUnits="userSpaceOnUse">
							<stop  offset="0" style="stop-color:#B3B3B3"/>
							<stop  offset="0.5054" style="stop-color:#E6E6E6"/>
							<stop  offset="1" style="stop-color:#808080"/>
						</radialGradient>
						<path class="st16" d="M82,221.4c-0.2,0-0.3-0.1-0.4-0.2c-0.1-0.2-0.1-0.4,0-0.6l65-67.9c0.2-0.2,0.4-0.2,0.6-0.1l37.9,24.1
							c0.2,0.1,0.2,0.3,0.2,0.4c0,0.2-0.1,0.3-0.3,0.4L82.2,221.3C82.2,221.4,82.1,221.4,82,221.4z M147.2,153.7L84,219.5l99.9-42.5
							L147.2,153.7z"/>
					</g>
				</g>
				<g>
					<g>
						<radialGradient id="SVGID_17_" cx="350.8634" cy="100.1217" r="269.0368" gradientUnits="userSpaceOnUse">
							<stop  offset="0" style="stop-color:#B3B3B3"/>
							<stop  offset="0.5054" style="stop-color:#E6E6E6"/>
							<stop  offset="1" style="stop-color:#808080"/>
						</radialGradient>
						<path class="st17" d="M231.9,212.3c-0.1,0-0.2,0-0.3-0.1l-47-34.7c-0.2-0.1-0.3-0.4-0.1-0.6l18.6-34.7
							c0.1-0.2,0.3-0.3,0.5-0.3c0.2,0,0.4,0.1,0.4,0.3l28.4,69.3c0.1,0.2,0,0.4-0.2,0.6C232.2,212.2,232.1,212.3,231.9,212.3z
							 M185.6,177l45.3,33.4l-27.3-66.8L185.6,177z"/>
					</g>
					<g>
						<radialGradient id="SVGID_18_" cx="350.8641" cy="100.1213" r="269.0381" gradientUnits="userSpaceOnUse">
							<stop  offset="0" style="stop-color:#B3B3B3"/>
							<stop  offset="0.5054" style="stop-color:#E6E6E6"/>
							<stop  offset="1" style="stop-color:#808080"/>
						</radialGradient>
						<path class="st18" d="M82,221.4c-0.2,0-0.4-0.1-0.5-0.4c-0.1-0.2,0.1-0.5,0.3-0.6l102.9-43.8c0.2-0.1,0.5,0,0.6,0.2
							c0.1,0.2,0.1,0.4,0,0.6l-32.9,35.9c-0.1,0.1-0.2,0.1-0.3,0.2L82,221.4C82.1,221.4,82.1,221.4,82,221.4z M183.1,178.4L85.3,220
							l66.6-7.5L183.1,178.4z M152.1,213L152.1,213L152.1,213z"/>
					</g>
				</g>
			</g>
			<g>
				<g>
					<g>
						<radialGradient id="SVGID_19_" cx="350.8635" cy="100.121" r="269.038" gradientUnits="userSpaceOnUse">
							<stop  offset="0" style="stop-color:#B3B3B3"/>
							<stop  offset="0.5054" style="stop-color:#E6E6E6"/>
							<stop  offset="1" style="stop-color:#808080"/>
						</radialGradient>
						<path class="st19" d="M250.3,306.4c-0.1,0-0.2,0-0.3-0.1c-0.2-0.1-0.2-0.3-0.2-0.5l10-65.5c0-0.2,0.1-0.3,0.3-0.4
							c0.1-0.1,0.3-0.1,0.5,0l50.9,31.1c0.1,0.1,0.2,0.2,0.2,0.4c0,0.2-0.1,0.3-0.2,0.4l-60.9,34.4
							C250.5,306.3,250.4,306.4,250.3,306.4z M260.7,241.2l-9.7,63.8l59.3-33.5L260.7,241.2z"/>
					</g>
					<g>
						<radialGradient id="SVGID_20_" cx="350.8638" cy="100.1215" r="269.037" gradientUnits="userSpaceOnUse">
							<stop  offset="0" style="stop-color:#B3B3B3"/>
							<stop  offset="0.5054" style="stop-color:#E6E6E6"/>
							<stop  offset="1" style="stop-color:#808080"/>
						</radialGradient>
						<path class="st20" d="M260.3,240.9c-0.1,0-0.3-0.1-0.3-0.1l-28.2-28.6c-0.1-0.1-0.2-0.3-0.1-0.5c0.1-0.2,0.2-0.3,0.4-0.3
							l48.9-7.4c0.2,0,0.4,0.1,0.5,0.2c0.1,0.2,0.1,0.4,0,0.5l-20.8,36C260.7,240.8,260.5,240.9,260.3,240.9
							C260.4,240.9,260.3,240.9,260.3,240.9z M233.2,212.1l27.1,27.5l19.9-34.6L233.2,212.1z"/>
					</g>
				</g>
				<g>
					<g>
						<radialGradient id="SVGID_21_" cx="350.8636" cy="100.1214" r="269.0374" gradientUnits="userSpaceOnUse">
							<stop  offset="0" style="stop-color:#B3B3B3"/>
							<stop  offset="0.5054" style="stop-color:#E6E6E6"/>
							<stop  offset="1" style="stop-color:#808080"/>
						</radialGradient>
						<path class="st21" d="M311.2,272c-0.1,0-0.2,0-0.3-0.1l-50.9-31.1c-0.2-0.1-0.3-0.3-0.2-0.5c0.1-0.2,0.2-0.4,0.5-0.4h56.6
							c0.1,0,0.3,0.1,0.4,0.2c0.1,0.1,0.1,0.3,0.1,0.4l-5.7,31.1c0,0.2-0.1,0.3-0.3,0.4C311.4,272,311.3,272,311.2,272z M262,240.9
							l48.8,29.8l5.4-29.8H262z"/>
					</g>
					<g>
						<radialGradient id="SVGID_22_" cx="350.8637" cy="100.1211" r="269.0375" gradientUnits="userSpaceOnUse">
							<stop  offset="0" style="stop-color:#B3B3B3"/>
							<stop  offset="0.5054" style="stop-color:#E6E6E6"/>
							<stop  offset="1" style="stop-color:#808080"/>
						</radialGradient>
						<path class="st22" d="M260.3,240.9c0,0-0.1,0-0.1,0l-68.1-18.5c-0.2-0.1-0.4-0.3-0.4-0.5c0-0.2,0.2-0.4,0.4-0.5l40-10.2
							c0.2,0,0.3,0,0.5,0.1l28.2,28.6c0.2,0.2,0.2,0.4,0.1,0.6C260.7,240.8,260.5,240.9,260.3,240.9z M194.1,222l64.6,17.5
							L232,212.3L194.1,222z"/>
					</g>
				</g>
				<g>
					<g>
						<radialGradient id="SVGID_23_" cx="350.864" cy="100.1213" r="269.038" gradientUnits="userSpaceOnUse">
							<stop  offset="0" style="stop-color:#B3B3B3"/>
							<stop  offset="0.5054" style="stop-color:#E6E6E6"/>
							<stop  offset="1" style="stop-color:#808080"/>
						</radialGradient>
						<path class="st23" d="M316.9,240.9h-56.6c-0.2,0-0.3-0.1-0.4-0.2c-0.1-0.1-0.1-0.3,0-0.5l20.8-36c0.1-0.1,0.2-0.2,0.4-0.2
							c0.2,0,0.3,0,0.4,0.1l35.8,36c0.1,0.1,0.2,0.3,0.1,0.5C317.2,240.8,317.1,240.9,316.9,240.9z M261.2,239.9h54.6l-34.5-34.8
							L261.2,239.9z"/>
					</g>
					<g>
						<radialGradient id="SVGID_24_" cx="350.8634" cy="100.1213" r="269.0373" gradientUnits="userSpaceOnUse">
							<stop  offset="0" style="stop-color:#B3B3B3"/>
							<stop  offset="0.5054" style="stop-color:#E6E6E6"/>
							<stop  offset="1" style="stop-color:#808080"/>
						</radialGradient>
						<path class="st24" d="M250.3,306.4c-0.2,0-0.3-0.1-0.4-0.2l-58.1-83.9c-0.1-0.2-0.1-0.4,0-0.6c0.1-0.2,0.3-0.2,0.5-0.2
							l68.1,18.5c0.2,0.1,0.4,0.3,0.4,0.5l-10,65.5c0,0.2-0.2,0.4-0.4,0.4C250.4,306.4,250.4,306.4,250.3,306.4z M193.3,222.8
							l56.7,81.8l9.8-63.8L193.3,222.8z"/>
					</g>
				</g>
			</g>
			<g>
				<g>
					<g>
						<radialGradient id="SVGID_25_" cx="350.8638" cy="100.1212" r="269.0379" gradientUnits="userSpaceOnUse">
							<stop  offset="0" style="stop-color:#B3B3B3"/>
							<stop  offset="0.5054" style="stop-color:#E6E6E6"/>
							<stop  offset="1" style="stop-color:#808080"/>
						</radialGradient>
						<path class="st25" d="M458,289.9h-56.6c-0.1,0-0.3-0.1-0.4-0.2c-0.1-0.1-0.1-0.3-0.1-0.4l15.7-81.6c0-0.2,0.2-0.4,0.4-0.4
							c0.2,0,0.4,0.1,0.5,0.3l40.9,81.6c0.1,0.2,0.1,0.3,0,0.5C458.3,289.8,458.2,289.9,458,289.9z M402,288.9h55.2l-39.9-79.7
							L402,288.9z"/>
					</g>
					<g>
						<radialGradient id="SVGID_26_" cx="350.8636" cy="100.1212" r="269.038" gradientUnits="userSpaceOnUse">
							<stop  offset="0" style="stop-color:#B3B3B3"/>
							<stop  offset="0.5054" style="stop-color:#E6E6E6"/>
							<stop  offset="1" style="stop-color:#808080"/>
						</radialGradient>
						<path class="st26" d="M417.1,208.3c-0.1,0-0.3-0.1-0.3-0.1l-15.7-16.3c-0.1-0.1-0.2-0.3-0.1-0.5c0.1-0.2,0.2-0.3,0.4-0.3
							l64.6-12.6c0.2,0,0.5,0.1,0.5,0.3c0.1,0.2,0,0.5-0.2,0.6l-48.9,28.9C417.3,208.2,417.2,208.3,417.1,208.3z M402.4,191.7
							l14.8,15.4l46.1-27.3L402.4,191.7z"/>
					</g>
				</g>
				<g>
					<g>
						<radialGradient id="SVGID_27_" cx="350.8637" cy="100.1216" r="269.0372" gradientUnits="userSpaceOnUse">
							<stop  offset="0" style="stop-color:#B3B3B3"/>
							<stop  offset="0.5054" style="stop-color:#E6E6E6"/>
							<stop  offset="1" style="stop-color:#808080"/>
						</radialGradient>
						<path class="st27" d="M458,289.9C458,289.9,458,289.9,458,289.9c-0.2,0-0.4-0.1-0.4-0.3L416.7,208c-0.1-0.2-0.1-0.4,0.1-0.6
							c0.1-0.1,0.4-0.2,0.6-0.1l69.1,32.6c0.1,0.1,0.2,0.2,0.3,0.3c0,0.1,0,0.3,0,0.4l-28.3,49C458.3,289.8,458.2,289.9,458,289.9z
							 M418.2,208.8l39.8,79.6l27.6-47.7L418.2,208.8z"/>
					</g>
					<g>
						<radialGradient id="SVGID_28_" cx="350.8637" cy="100.1216" r="269.0369" gradientUnits="userSpaceOnUse">
							<stop  offset="0" style="stop-color:#B3B3B3"/>
							<stop  offset="0.5054" style="stop-color:#E6E6E6"/>
							<stop  offset="1" style="stop-color:#808080"/>
						</radialGradient>
						<path class="st28" d="M373.2,240.9c-0.1,0-0.2,0-0.3-0.1c-0.2-0.2-0.2-0.4-0.1-0.6l28.3-49c0.1-0.1,0.2-0.2,0.4-0.2
							c0.2,0,0.3,0,0.4,0.1l15.7,16.3c0.1,0.1,0.1,0.2,0.1,0.4c0,0.1-0.1,0.3-0.2,0.3l-44,32.7C373.4,240.9,373.3,240.9,373.2,240.9
							z M401.5,192.2l-26.8,46.4l41.7-30.9L401.5,192.2z"/>
					</g>
				</g>
				<g>
					<g>
						<radialGradient id="SVGID_29_" cx="350.8638" cy="100.1215" r="269.0373" gradientUnits="userSpaceOnUse">
							<stop  offset="0" style="stop-color:#B3B3B3"/>
							<stop  offset="0.5054" style="stop-color:#E6E6E6"/>
							<stop  offset="1" style="stop-color:#808080"/>
						</radialGradient>
						<path class="st29" d="M486.3,240.9c-0.1,0-0.1,0-0.2,0l-69.1-32.7c-0.2-0.1-0.3-0.2-0.3-0.4c0-0.2,0.1-0.3,0.2-0.4l48.9-28.9
							c0.1-0.1,0.3-0.1,0.4,0c0.1,0.1,0.2,0.2,0.3,0.3l20.3,61.6c0.1,0.2,0,0.4-0.1,0.5C486.5,240.9,486.4,240.9,486.3,240.9z
							 M418.2,207.7l67.3,31.8l-19.7-59.9L418.2,207.7z"/>
					</g>
					<g>
						<radialGradient id="SVGID_30_" cx="350.8636" cy="100.1214" r="269.0373" gradientUnits="userSpaceOnUse">
							<stop  offset="0" style="stop-color:#B3B3B3"/>
							<stop  offset="0.5054" style="stop-color:#E6E6E6"/>
							<stop  offset="1" style="stop-color:#808080"/>
						</radialGradient>
						<path class="st30" d="M401.4,289.9c-0.2,0-0.3-0.1-0.4-0.2l-28.3-49c-0.1-0.2-0.1-0.5,0.1-0.6l44-32.6c0.2-0.1,0.4-0.1,0.5,0
							c0.2,0.1,0.3,0.3,0.2,0.5l-15.7,81.6C401.9,289.7,401.7,289.8,401.4,289.9C401.5,289.9,401.5,289.9,401.4,289.9z M373.8,240.5
							l27.4,47.5l15.2-79.1L373.8,240.5z"/>
					</g>
				</g>
			</g>
			<g>
				<g>
					<g>
						<radialGradient id="SVGID_31_" cx="350.8637" cy="100.1212" r="269.0387" gradientUnits="userSpaceOnUse">
							<stop  offset="0" style="stop-color:#B3B3B3"/>
							<stop  offset="0.5054" style="stop-color:#E6E6E6"/>
							<stop  offset="1" style="stop-color:#808080"/>
						</radialGradient>
						<path class="st31" d="M486.5,338.9c-0.1,0-0.2,0-0.3-0.1c-0.2-0.1-0.3-0.4-0.2-0.6l31.2-86.7c0.1-0.2,0.2-0.3,0.5-0.3
							c0.2,0,0.4,0.2,0.4,0.4l11.3,40.4c0,0.2,0,0.3-0.1,0.5l-42.5,46.3C486.7,338.8,486.6,338.9,486.5,338.9z M517.6,253.2
							l-29.9,83l40.7-44.4L517.6,253.2z"/>
					</g>
					<g>
						<radialGradient id="SVGID_32_" cx="350.8636" cy="100.1213" r="269.0371" gradientUnits="userSpaceOnUse">
							<stop  offset="0" style="stop-color:#B3B3B3"/>
							<stop  offset="0.5054" style="stop-color:#E6E6E6"/>
							<stop  offset="1" style="stop-color:#808080"/>
						</radialGradient>
						<path class="st32" d="M517.7,252.1c-0.1,0-0.1,0-0.2,0l-31.2-11.2c-0.2-0.1-0.4-0.3-0.3-0.5c0-0.2,0.2-0.4,0.5-0.4H543
							c0.2,0,0.4,0.2,0.5,0.4c0,0.2-0.1,0.4-0.3,0.5l-25.3,11.2C517.8,252.1,517.8,252.1,517.7,252.1z M489.2,240.9l28.4,10.2
							l23.1-10.2H489.2z"/>
					</g>
				</g>
				<g>
					<g>
						<radialGradient id="SVGID_33_" cx="350.8633" cy="100.1213" r="269.0373" gradientUnits="userSpaceOnUse">
							<stop  offset="0" style="stop-color:#B3B3B3"/>
							<stop  offset="0.5054" style="stop-color:#E6E6E6"/>
							<stop  offset="1" style="stop-color:#808080"/>
						</radialGradient>
						<path class="st33" d="M593.4,302.6C593.4,302.6,593.3,302.6,593.4,302.6l-64.5-10.1c-0.2,0-0.3-0.2-0.4-0.3l-11.3-40.4
							c-0.1-0.2,0-0.4,0.2-0.5c0.2-0.1,0.4-0.1,0.6,0l75.7,50.5c0.2,0.1,0.3,0.4,0.2,0.6C593.8,302.5,593.6,302.6,593.4,302.6z
							 M529.4,291.6l61.9,9.7l-72.8-48.6L529.4,291.6z"/>
					</g>
					<g>
						<radialGradient id="SVGID_34_" cx="350.8635" cy="100.1214" r="269.0384" gradientUnits="userSpaceOnUse">
							<stop  offset="0" style="stop-color:#B3B3B3"/>
							<stop  offset="0.5054" style="stop-color:#E6E6E6"/>
							<stop  offset="1" style="stop-color:#808080"/>
						</radialGradient>
						<path class="st34" d="M458.2,289.9c-0.1,0-0.2,0-0.3-0.1c-0.2-0.2-0.2-0.4-0.1-0.6l28.3-49c0.1-0.2,0.4-0.3,0.6-0.2l31.2,11.2
							c0.2,0.1,0.3,0.2,0.3,0.4c0,0.2-0.1,0.4-0.2,0.5l-59.5,37.8C458.4,289.9,458.3,289.9,458.2,289.9z M486.7,241l-27.1,46.9
							l57-36.2L486.7,241z"/>
					</g>
				</g>
				<g>
					<g>
						<radialGradient id="SVGID_35_" cx="350.864" cy="100.1215" r="269.0384" gradientUnits="userSpaceOnUse">
							<stop  offset="0" style="stop-color:#B3B3B3"/>
							<stop  offset="0.5054" style="stop-color:#E6E6E6"/>
							<stop  offset="1" style="stop-color:#808080"/>
						</radialGradient>
						<path class="st35" d="M593.4,302.6c-0.1,0-0.2,0-0.3-0.1L517.4,252c-0.1-0.1-0.2-0.3-0.2-0.4c0-0.2,0.1-0.3,0.3-0.4l25.3-11.2
							c0.2-0.1,0.4,0,0.6,0.1l50.4,61.7c0.2,0.2,0.1,0.5,0,0.6C593.7,302.6,593.5,302.6,593.4,302.6z M518.7,251.7L591,300l-48.1-59
							L518.7,251.7z"/>
					</g>
					<g>
						<radialGradient id="SVGID_36_" cx="350.8634" cy="100.121" r="269.038" gradientUnits="userSpaceOnUse">
							<stop  offset="0" style="stop-color:#B3B3B3"/>
							<stop  offset="0.5054" style="stop-color:#E6E6E6"/>
							<stop  offset="1" style="stop-color:#808080"/>
						</radialGradient>
						<path class="st36" d="M486.5,338.9c-0.2,0-0.3-0.1-0.4-0.2l-28.3-49c-0.1-0.2-0.1-0.5,0.2-0.6l59.5-37.8
							c0.2-0.1,0.4-0.1,0.6,0c0.2,0.1,0.2,0.3,0.2,0.5l-31.2,86.7C486.9,338.7,486.7,338.8,486.5,338.9
							C486.5,338.9,486.5,338.9,486.5,338.9z M458.8,289.6l27.5,47.7l30.4-84.4L458.8,289.6z"/>
					</g>
				</g>
			</g>
			<g>
				<g>
					<g>
						<radialGradient id="SVGID_37_" cx="350.8637" cy="100.1214" r="269.0376" gradientUnits="userSpaceOnUse">
							<stop  offset="0" style="stop-color:#B3B3B3"/>
							<stop  offset="0.5054" style="stop-color:#E6E6E6"/>
							<stop  offset="1" style="stop-color:#808080"/>
						</radialGradient>
						<path class="st37" d="M308,349.8c-0.2,0-0.4-0.1-0.4-0.3c-0.1-0.2,0-0.4,0.1-0.6l63.2-54.5c0.1-0.1,0.3-0.2,0.5-0.1
							c0.2,0.1,0.3,0.2,0.3,0.4l1.9,43.5c0,0.2-0.2,0.5-0.4,0.5L308,349.8C308.1,349.8,308,349.8,308,349.8z M370.8,295.9
							l-61.2,52.7l63-10.6L370.8,295.9z"/>
					</g>
					<g>
						<radialGradient id="SVGID_38_" cx="350.8637" cy="100.1214" r="269.0381" gradientUnits="userSpaceOnUse">
							<stop  offset="0" style="stop-color:#B3B3B3"/>
							<stop  offset="0.5054" style="stop-color:#E6E6E6"/>
							<stop  offset="1" style="stop-color:#808080"/>
						</radialGradient>
						<path class="st38" d="M371.3,295.4c-0.1,0-0.2,0-0.3-0.1l-54.7-54.5c-0.1-0.1-0.2-0.3-0.1-0.5c0.1-0.2,0.3-0.3,0.4-0.3h56.6
							c0.1,0,0.3,0.1,0.3,0.1c0.1,0.1,0.1,0.2,0.1,0.4l-1.9,54.5c0,0.2-0.1,0.4-0.3,0.4C371.4,295.3,371.3,295.4,371.3,295.4z
							 M317.8,240.9l53.1,52.8l1.8-52.8H317.8z"/>
					</g>
				</g>
				<g>
					<g>
						<radialGradient id="SVGID_39_" cx="350.8637" cy="100.1214" r="269.0384" gradientUnits="userSpaceOnUse">
							<stop  offset="0" style="stop-color:#B3B3B3"/>
							<stop  offset="0.5054" style="stop-color:#E6E6E6"/>
							<stop  offset="1" style="stop-color:#808080"/>
						</radialGradient>
						<path class="st39" d="M373.2,338.9c0,0-0.1,0-0.1,0c-0.2-0.1-0.4-0.2-0.4-0.4l-1.9-43.5c0-0.2,0.2-0.5,0.4-0.5l30.2-5.5
							c0.2,0,0.4,0,0.5,0.2c0.1,0.2,0.1,0.4,0,0.5l-28.3,49C373.5,338.8,373.3,338.9,373.2,338.9z M371.8,295.3l1.8,41.4l26.9-46.6
							L371.8,295.3z"/>
					</g>
					<g>
						<radialGradient id="SVGID_40_" cx="350.8637" cy="100.1213" r="269.037" gradientUnits="userSpaceOnUse">
							<stop  offset="0" style="stop-color:#B3B3B3"/>
							<stop  offset="0.5054" style="stop-color:#E6E6E6"/>
							<stop  offset="1" style="stop-color:#808080"/>
						</radialGradient>
						<path class="st40" d="M371.3,295.4c-0.1,0-0.1,0-0.2,0L310.8,272c-0.2-0.1-0.3-0.3-0.3-0.5l5.7-31.1c0-0.2,0.2-0.3,0.3-0.4
							c0.2-0.1,0.4,0,0.5,0.1l54.7,54.5c0.2,0.2,0.2,0.4,0.1,0.6C371.6,295.3,371.4,295.4,371.3,295.4z M311.5,271.2l57.8,22.4
							l-52.4-52.2L311.5,271.2z"/>
					</g>
				</g>
				<g>
					<g>
						<radialGradient id="SVGID_41_" cx="350.8637" cy="100.1214" r="269.0376" gradientUnits="userSpaceOnUse">
							<stop  offset="0" style="stop-color:#B3B3B3"/>
							<stop  offset="0.5054" style="stop-color:#E6E6E6"/>
							<stop  offset="1" style="stop-color:#808080"/>
						</radialGradient>
						<path class="st41" d="M371.3,295.4c-0.1,0-0.2,0-0.3-0.1c-0.1-0.1-0.2-0.2-0.2-0.4l1.9-54.5c0-0.2,0.2-0.4,0.4-0.5
							c0.2-0.1,0.4,0,0.5,0.2l28.3,49c0.1,0.1,0.1,0.3,0,0.4c-0.1,0.1-0.2,0.2-0.4,0.3L371.3,295.4
							C371.3,295.4,371.3,295.4,371.3,295.4z M373.6,242.1l-1.8,52.2l28.9-5.2L373.6,242.1z"/>
					</g>
					<g>
						<radialGradient id="SVGID_42_" cx="350.8637" cy="100.1213" r="269.0369" gradientUnits="userSpaceOnUse">
							<stop  offset="0" style="stop-color:#B3B3B3"/>
							<stop  offset="0.5054" style="stop-color:#E6E6E6"/>
							<stop  offset="1" style="stop-color:#808080"/>
						</radialGradient>
						<path class="st42" d="M308,349.8c-0.1,0-0.1,0-0.2,0c-0.2-0.1-0.3-0.3-0.3-0.5l2.9-77.9c0-0.2,0.1-0.3,0.2-0.4
							c0.1-0.1,0.3-0.1,0.4,0l60.3,23.4c0.2,0.1,0.3,0.2,0.3,0.4c0,0.2,0,0.3-0.2,0.4l-63.2,54.5C308.2,349.8,308.1,349.8,308,349.8
							z M311.4,272.2l-2.9,76.1l61.8-53.2L311.4,272.2z"/>
					</g>
				</g>
			</g>
			<g>
				<g>
					<g>
						<radialGradient id="SVGID_43_" cx="350.8642" cy="100.1215" r="269.0375" gradientUnits="userSpaceOnUse">
							<stop  offset="0" style="stop-color:#B3B3B3"/>
							<stop  offset="0.5054" style="stop-color:#E6E6E6"/>
							<stop  offset="1" style="stop-color:#808080"/>
						</radialGradient>
						<path class="st43" d="M593.4,302.6c-0.1,0-0.1,0-0.2,0c-0.2-0.1-0.4-0.3-0.3-0.5l13.1-90.4c0-0.2,0.2-0.4,0.4-0.4
							c0.2,0,0.4,0,0.5,0.2l19,30.9c0.1,0.1,0.1,0.3,0,0.5l-32.1,59.5C593.7,302.5,593.6,302.6,593.4,302.6z M606.8,213.2
							l-12.6,86.3l30.7-56.8L606.8,213.2z"/>
					</g>
					<g>
						<radialGradient id="SVGID_44_" cx="350.8642" cy="100.1212" r="269.0378" gradientUnits="userSpaceOnUse">
							<stop  offset="0" style="stop-color:#B3B3B3"/>
							<stop  offset="0.5054" style="stop-color:#E6E6E6"/>
							<stop  offset="1" style="stop-color:#808080"/>
						</radialGradient>
						<path class="st44" d="M606.5,212.3C606.5,212.3,606.5,212.3,606.5,212.3l-47.6-3.9c-0.2,0-0.4-0.2-0.4-0.4
							c0-0.2,0.1-0.5,0.4-0.5l68.9-16.5c0.2-0.1,0.4,0,0.5,0.2c0.1,0.2,0.1,0.4-0.1,0.6l-21.3,20.3
							C606.8,212.2,606.6,212.3,606.5,212.3z M562,207.7l44.4,3.6l19.9-19L562,207.7z"/>
					</g>
				</g>
				<g>
					<g>
						<radialGradient id="SVGID_45_" cx="350.8641" cy="100.1213" r="269.0379" gradientUnits="userSpaceOnUse">
							<stop  offset="0" style="stop-color:#B3B3B3"/>
							<stop  offset="0.5054" style="stop-color:#E6E6E6"/>
							<stop  offset="1" style="stop-color:#808080"/>
						</radialGradient>
						<path class="st45" d="M625.5,243.2c-0.2,0-0.3-0.1-0.4-0.2l-19-30.9c-0.1-0.2-0.1-0.4,0.1-0.6c0.2-0.2,0.4-0.2,0.6-0.1
							l49.6,28.6c0.2,0.1,0.3,0.3,0.2,0.5c0,0.2-0.2,0.4-0.4,0.4L625.5,243.2C625.5,243.2,625.5,243.2,625.5,243.2z M607.9,213.2
							l17.8,29l28.8-2.1L607.9,213.2z"/>
					</g>
					<g>
						<radialGradient id="SVGID_46_" cx="350.8635" cy="100.1212" r="269.0383" gradientUnits="userSpaceOnUse">
							<stop  offset="0" style="stop-color:#B3B3B3"/>
							<stop  offset="0.5054" style="stop-color:#E6E6E6"/>
							<stop  offset="1" style="stop-color:#808080"/>
						</radialGradient>
						<path class="st46" d="M543,240.9c-0.1,0-0.3-0.1-0.3-0.1c-0.1-0.1-0.2-0.4-0.1-0.5l15.9-32.5c0.1-0.2,0.3-0.3,0.5-0.3
							l47.6,3.9c0.2,0,0.4,0.2,0.4,0.4c0,0.2-0.1,0.4-0.3,0.5l-63.5,28.6C543.1,240.9,543.1,240.9,543,240.9z M559.2,208.4l-15.2,31
							l60.6-27.3L559.2,208.4z"/>
					</g>
				</g>
				<g>
					<g>
						<radialGradient id="SVGID_47_" cx="350.8636" cy="100.1215" r="269.038" gradientUnits="userSpaceOnUse">
							<stop  offset="0" style="stop-color:#B3B3B3"/>
							<stop  offset="0.5054" style="stop-color:#E6E6E6"/>
							<stop  offset="1" style="stop-color:#808080"/>
						</radialGradient>
						<path class="st47" d="M656.1,240.9c-0.1,0-0.2,0-0.2-0.1l-49.6-28.6c-0.1-0.1-0.2-0.2-0.2-0.4c0-0.2,0-0.3,0.1-0.4l21.3-20.3
							c0.1-0.1,0.3-0.1,0.4-0.1c0.1,0,0.3,0.1,0.3,0.2l28.3,49c0.1,0.2,0.1,0.4-0.1,0.6C656.4,240.9,656.2,240.9,656.1,240.9z
							 M607.3,211.7l47.5,27.4l-27.1-46.9L607.3,211.7z"/>
					</g>
					<g>
						<radialGradient id="SVGID_48_" cx="350.8639" cy="100.1215" r="269.0372" gradientUnits="userSpaceOnUse">
							<stop  offset="0" style="stop-color:#B3B3B3"/>
							<stop  offset="0.5054" style="stop-color:#E6E6E6"/>
							<stop  offset="1" style="stop-color:#808080"/>
						</radialGradient>
						<path class="st48" d="M593.4,302.6c-0.1,0-0.3-0.1-0.4-0.2l-50.4-61.7c-0.1-0.1-0.1-0.3-0.1-0.4c0-0.1,0.1-0.3,0.3-0.3
							l63.5-28.6c0.2-0.1,0.3-0.1,0.5,0.1c0.1,0.1,0.2,0.3,0.2,0.5l-13.1,90.4c0,0.2-0.2,0.3-0.3,0.4
							C593.5,302.6,593.4,302.6,593.4,302.6z M543.8,240.6l49.3,60.4l12.9-88.4L543.8,240.6z"/>
					</g>
				</g>
			</g>
			<g>
				<g>
					<g>
						<radialGradient id="SVGID_49_" cx="350.8637" cy="100.1212" r="269.0378" gradientUnits="userSpaceOnUse">
							<stop  offset="0" style="stop-color:#B3B3B3"/>
							<stop  offset="0.5054" style="stop-color:#E6E6E6"/>
							<stop  offset="1" style="stop-color:#808080"/>
						</radialGradient>
						<path class="st49" d="M543,240.6h-56.6c-0.2,0-0.3-0.1-0.4-0.2c-0.1-0.1-0.1-0.3,0-0.5l28.3-49c0.2-0.3,0.7-0.3,0.8,0l28.3,49
							c0.1,0.1,0.1,0.3,0,0.5C543.3,240.5,543.2,240.6,543,240.6z M487.3,239.6h54.9l-27.4-47.5L487.3,239.6z"/>
					</g>
					<g>
						<radialGradient id="SVGID_50_" cx="350.8639" cy="100.1216" r="269.0371" gradientUnits="userSpaceOnUse">
							<stop  offset="0" style="stop-color:#B3B3B3"/>
							<stop  offset="0.5054" style="stop-color:#E6E6E6"/>
							<stop  offset="1" style="stop-color:#808080"/>
						</radialGradient>
						<path class="st50" d="M514.7,191.6c-0.1,0-0.1,0-0.2,0c-0.2-0.1-0.3-0.2-0.3-0.4l-6-48.7c0-0.1,0-0.3,0.1-0.4
							c0.1-0.1,0.2-0.2,0.4-0.1l56.5,4.6c0.2,0,0.4,0.1,0.4,0.3c0.1,0.2,0,0.4-0.1,0.5l-50.5,44.1
							C515,191.6,514.9,191.6,514.7,191.6z M509.3,143l5.8,47.2l48.9-42.7L509.3,143z"/>
					</g>
				</g>
				<g>
					<g>
						<radialGradient id="SVGID_51_" cx="350.8637" cy="100.1216" r="269.0365" gradientUnits="userSpaceOnUse">
							<stop  offset="0" style="stop-color:#B3B3B3"/>
							<stop  offset="0.5054" style="stop-color:#E6E6E6"/>
							<stop  offset="1" style="stop-color:#808080"/>
						</radialGradient>
						<path class="st51" d="M543,240.6c-0.2,0-0.3-0.1-0.4-0.2l-28.3-49c-0.1-0.2-0.1-0.4,0-0.6c0.1-0.2,0.3-0.2,0.5-0.1l44.2,16.5
							c0.1,0,0.2,0.1,0.3,0.3c0.1,0.1,0,0.3,0,0.4l-15.9,32.5C543.4,240.5,543.2,240.6,543,240.6C543,240.6,543,240.6,543,240.6z
							 M515.8,192.1l27.2,47l15.3-31.2L515.8,192.1z"/>
					</g>
					<g>
						<radialGradient id="SVGID_52_" cx="350.8636" cy="100.1213" r="269.0378" gradientUnits="userSpaceOnUse">
							<stop  offset="0" style="stop-color:#B3B3B3"/>
							<stop  offset="0.5054" style="stop-color:#E6E6E6"/>
							<stop  offset="1" style="stop-color:#808080"/>
						</radialGradient>
						<path class="st52" d="M514.7,191.6c0,0-0.1,0-0.1,0L466.1,179c-0.2,0-0.3-0.2-0.4-0.4c0-0.2,0-0.4,0.2-0.5l42.6-36.1
							c0.1-0.1,0.3-0.1,0.5-0.1c0.2,0.1,0.3,0.2,0.3,0.4l6,48.7c0,0.2,0,0.3-0.2,0.4C515,191.6,514.9,191.6,514.7,191.6z
							 M467.2,178.3l47,12.2l-5.8-47.1L467.2,178.3z"/>
					</g>
				</g>
				<g>
					<g>
						<radialGradient id="SVGID_53_" cx="350.8633" cy="100.1214" r="269.0382" gradientUnits="userSpaceOnUse">
							<stop  offset="0" style="stop-color:#B3B3B3"/>
							<stop  offset="0.5054" style="stop-color:#E6E6E6"/>
							<stop  offset="1" style="stop-color:#808080"/>
						</radialGradient>
						<path class="st53" d="M558.9,208.1c-0.1,0-0.1,0-0.2,0l-44.2-16.5c-0.2-0.1-0.3-0.2-0.3-0.4c0-0.2,0-0.3,0.2-0.5l50.5-44.1
							c0.2-0.1,0.4-0.2,0.5-0.1c0.2,0.1,0.3,0.3,0.3,0.5l-6.3,60.5c0,0.1-0.1,0.3-0.2,0.4C559.1,208.1,559,208.1,558.9,208.1z
							 M515.7,191l42.9,16l6.1-58.7L515.7,191z"/>
					</g>
					<g>
						<radialGradient id="SVGID_54_" cx="350.8635" cy="100.1214" r="269.0374" gradientUnits="userSpaceOnUse">
							<stop  offset="0" style="stop-color:#B3B3B3"/>
							<stop  offset="0.5054" style="stop-color:#E6E6E6"/>
							<stop  offset="1" style="stop-color:#808080"/>
						</radialGradient>
						<path class="st54" d="M486.5,240.6C486.4,240.6,486.4,240.6,486.5,240.6c-0.2,0-0.4-0.2-0.5-0.3l-20.3-61.6
							c-0.1-0.2,0-0.4,0.1-0.5c0.1-0.1,0.3-0.2,0.5-0.1l48.6,12.6c0.1,0,0.3,0.1,0.3,0.3c0.1,0.1,0,0.3,0,0.4l-28.3,49
							C486.8,240.5,486.6,240.6,486.5,240.6z M466.9,179.3l19.7,59.7l27.4-47.5L466.9,179.3z"/>
					</g>
				</g>
			</g>
			<g>
				<g>
					<g>
						<radialGradient id="SVGID_55_" cx="350.8635" cy="100.1214" r="269.0376" gradientUnits="userSpaceOnUse">
							<stop  offset="0" style="stop-color:#B3B3B3"/>
							<stop  offset="0.5054" style="stop-color:#E6E6E6"/>
							<stop  offset="1" style="stop-color:#808080"/>
						</radialGradient>
						<path class="st55" d="M565.2,147.6C565.2,147.6,565.2,147.6,565.2,147.6l-56.5-4.6c-0.2,0-0.4-0.2-0.4-0.4l-16-63.9
							c-0.1-0.2,0-0.4,0.2-0.5c0.2-0.1,0.4-0.1,0.6,0.1l72.4,68.6c0.1,0.1,0.2,0.4,0.1,0.5C565.6,147.5,565.4,147.6,565.2,147.6z
							 M509.1,142l54.8,4.5L493.7,80L509.1,142z"/>
					</g>
					<g>
						<radialGradient id="SVGID_56_" cx="350.8635" cy="100.1214" r="269.038" gradientUnits="userSpaceOnUse">
							<stop  offset="0" style="stop-color:#B3B3B3"/>
							<stop  offset="0.5054" style="stop-color:#E6E6E6"/>
							<stop  offset="1" style="stop-color:#808080"/>
						</radialGradient>
						<path class="st56" d="M492.8,79c-0.1,0-0.1,0-0.2,0c-0.2-0.1-0.3-0.2-0.3-0.4L486,44.3c0-0.1,0-0.3,0.1-0.4
							c0.1-0.1,0.2-0.2,0.4-0.2H543c0.2,0,0.4,0.1,0.5,0.3c0.1,0.2,0,0.4-0.2,0.5l-50.2,34.3C493,79,492.9,79,492.8,79z M487,44.7
							l6.1,33l48.3-33H487z"/>
					</g>
				</g>
				<g>
					<g>
						<radialGradient id="SVGID_57_" cx="350.8638" cy="100.1214" r="269.0379" gradientUnits="userSpaceOnUse">
							<stop  offset="0" style="stop-color:#B3B3B3"/>
							<stop  offset="0.5054" style="stop-color:#E6E6E6"/>
							<stop  offset="1" style="stop-color:#808080"/>
						</radialGradient>
						<path class="st57" d="M565.2,147.6c-0.1,0-0.2,0-0.3-0.1l-72.4-68.6c-0.2-0.2-0.2-0.4-0.1-0.6c0.1-0.2,0.3-0.3,0.6-0.2
							l83.6,23.2c0.3,0.1,0.4,0.3,0.3,0.6l-11.1,45.3c0,0.2-0.2,0.3-0.3,0.3C565.3,147.6,565.3,147.6,565.2,147.6z M494.5,79.5
							l70.4,66.7l10.8-44.1L494.5,79.5z"/>
					</g>
					<g>
						<radialGradient id="SVGID_58_" cx="350.8639" cy="100.1213" r="269.0376" gradientUnits="userSpaceOnUse">
							<stop  offset="0" style="stop-color:#B3B3B3"/>
							<stop  offset="0.5054" style="stop-color:#E6E6E6"/>
							<stop  offset="1" style="stop-color:#808080"/>
						</radialGradient>
						<path class="st58" d="M458.2,93.7c-0.1,0-0.3-0.1-0.4-0.2c-0.1-0.2-0.2-0.4-0.1-0.6L486,44c0.1-0.2,0.3-0.3,0.5-0.2
							c0.2,0,0.4,0.2,0.4,0.4l6.3,34.3c0,0.2-0.1,0.4-0.3,0.5l-34.6,14.7C458.3,93.7,458.2,93.7,458.2,93.7z M486.2,45.6l-26.9,46.6
							l32.9-13.9L486.2,45.6z"/>
					</g>
				</g>
				<g>
					<g>
						<radialGradient id="SVGID_59_" cx="350.8637" cy="100.1214" r="269.0373" gradientUnits="userSpaceOnUse">
							<stop  offset="0" style="stop-color:#B3B3B3"/>
							<stop  offset="0.5054" style="stop-color:#E6E6E6"/>
							<stop  offset="1" style="stop-color:#808080"/>
						</radialGradient>
						<path class="st59" d="M576.3,102.3c0,0-0.1,0-0.1,0L492.7,79c-0.2-0.1-0.3-0.2-0.3-0.4c0-0.2,0-0.4,0.2-0.5l50.2-34.3
							c0.1-0.1,0.3-0.1,0.4-0.1c0.1,0,0.2,0.1,0.3,0.2l33.3,57.6c0.1,0.2,0.1,0.4,0,0.5C576.6,102.2,576.5,102.3,576.3,102.3z
							 M493.9,78.3l81.4,22.6l-32.5-56.1L493.9,78.3z"/>
					</g>
					<g>
						<radialGradient id="SVGID_60_" cx="350.8638" cy="100.1213" r="269.038" gradientUnits="userSpaceOnUse">
							<stop  offset="0" style="stop-color:#B3B3B3"/>
							<stop  offset="0.5054" style="stop-color:#E6E6E6"/>
							<stop  offset="1" style="stop-color:#808080"/>
						</radialGradient>
						<path class="st60" d="M508.8,142.9c-0.1,0-0.2,0-0.3-0.1l-50.6-49.3c-0.1-0.1-0.2-0.3-0.1-0.4c0-0.2,0.1-0.3,0.3-0.4
							l34.6-14.7c0.1-0.1,0.3-0.1,0.4,0c0.1,0.1,0.2,0.2,0.3,0.3l16,63.9c0.1,0.2,0,0.4-0.2,0.5
							C508.9,142.9,508.8,142.9,508.8,142.9z M459,93.4l48.8,47.6l-15.4-61.7L459,93.4z"/>
					</g>
				</g>
			</g>
			<g>
				<g>
					<g>
						<radialGradient id="SVGID_61_" cx="350.8639" cy="100.1214" r="269.0371" gradientUnits="userSpaceOnUse">
							<stop  offset="0" style="stop-color:#B3B3B3"/>
							<stop  offset="0.5054" style="stop-color:#E6E6E6"/>
							<stop  offset="1" style="stop-color:#808080"/>
						</radialGradient>
						<path class="st61" d="M559.1,208.4c-0.2,0-0.3-0.1-0.4-0.2c-0.1-0.2-0.1-0.4,0-0.6l35.7-41.4c0.2-0.2,0.5-0.2,0.7-0.1
							l33.2,24.9c0.2,0.1,0.2,0.3,0.2,0.5c0,0.2-0.2,0.3-0.4,0.4l-68.9,16.5C559.1,208.4,559.1,208.4,559.1,208.4z M594.8,167.2
							l-34.4,39.9l66.5-15.9L594.8,167.2z"/>
					</g>
					<g>
						<radialGradient id="SVGID_62_" cx="350.8637" cy="100.1214" r="269.0375" gradientUnits="userSpaceOnUse">
							<stop  offset="0" style="stop-color:#B3B3B3"/>
							<stop  offset="0.5054" style="stop-color:#E6E6E6"/>
							<stop  offset="1" style="stop-color:#808080"/>
						</radialGradient>
						<path class="st62" d="M594.8,167C594.7,167,594.7,167,594.8,167c-0.2,0-0.4-0.2-0.5-0.4L576,102.2c0-0.1,0-0.3,0.1-0.4
							c0.1-0.1,0.2-0.2,0.3-0.2l51.5-8.6c0.2,0,0.4,0,0.5,0.2c0.1,0.1,0.1,0.3,0.1,0.5l-33.2,73.1C595.1,166.9,594.9,167,594.8,167z
							 M577.1,102.4l17.8,62.7l32.3-71L577.1,102.4z"/>
					</g>
				</g>
				<g>
					<g>
						<radialGradient id="SVGID_63_" cx="350.8638" cy="100.1215" r="269.037" gradientUnits="userSpaceOnUse">
							<stop  offset="0" style="stop-color:#B3B3B3"/>
							<stop  offset="0.5054" style="stop-color:#E6E6E6"/>
							<stop  offset="1" style="stop-color:#808080"/>
						</radialGradient>
						<path class="st63" d="M628,191.9c-0.1,0-0.2,0-0.3-0.1l-33.2-24.9c-0.1-0.1-0.2-0.3-0.2-0.5c0-0.2,0.1-0.3,0.3-0.4l61.5-24.1
							c0.2-0.1,0.4,0,0.5,0.1c0.1,0.2,0.2,0.4,0.1,0.6l-28.3,49C628.3,191.8,628.2,191.9,628,191.9C628,191.9,628,191.9,628,191.9z
							 M595.7,166.7l32.1,24l27.3-47.3L595.7,166.7z"/>
					</g>
					<g>
						<radialGradient id="SVGID_64_" cx="350.8637" cy="100.1214" r="269.0368" gradientUnits="userSpaceOnUse">
							<stop  offset="0" style="stop-color:#B3B3B3"/>
							<stop  offset="0.5054" style="stop-color:#E6E6E6"/>
							<stop  offset="1" style="stop-color:#808080"/>
						</radialGradient>
						<path class="st64" d="M594.8,167c-0.1,0-0.2,0-0.3-0.1l-29.4-19.2c-0.2-0.1-0.3-0.3-0.2-0.5l11.1-45.3
							c0.1-0.2,0.2-0.4,0.5-0.4c0.3,0,0.4,0.1,0.5,0.4l18.3,64.5c0.1,0.2,0,0.4-0.2,0.5C595,167,594.9,167,594.8,167z M565.9,147.2
							l28,18.3l-17.4-61.5L565.9,147.2z"/>
					</g>
				</g>
				<g>
					<g>
						<radialGradient id="SVGID_65_" cx="350.8637" cy="100.1214" r="269.0377" gradientUnits="userSpaceOnUse">
							<stop  offset="0" style="stop-color:#B3B3B3"/>
							<stop  offset="0.5054" style="stop-color:#E6E6E6"/>
							<stop  offset="1" style="stop-color:#808080"/>
						</radialGradient>
						<path class="st65" d="M594.7,167c-0.1,0-0.3-0.1-0.4-0.2c-0.1-0.1-0.2-0.4-0.1-0.5l33.2-73.1c0.1-0.2,0.2-0.3,0.4-0.3
							c0.2,0,0.4,0.1,0.4,0.2l28.3,49c0.1,0.1,0.1,0.3,0,0.4c0,0.1-0.1,0.2-0.3,0.3L594.9,167C594.9,167,594.8,167,594.7,167z
							 M628,94.5l-32.3,71.1l59.9-23.4L628,94.5z"/>
					</g>
					<g>
						<radialGradient id="SVGID_66_" cx="350.8636" cy="100.1211" r="269.0377" gradientUnits="userSpaceOnUse">
							<stop  offset="0" style="stop-color:#B3B3B3"/>
							<stop  offset="0.5054" style="stop-color:#E6E6E6"/>
							<stop  offset="1" style="stop-color:#808080"/>
						</radialGradient>
						<path class="st66" d="M559.1,208.4c-0.1,0-0.1,0-0.2,0c-0.2-0.1-0.3-0.3-0.3-0.5l6.3-60.5c0-0.2,0.1-0.3,0.3-0.4
							c0.2-0.1,0.3-0.1,0.5,0l29.4,19.2c0.1,0.1,0.2,0.2,0.2,0.3c0,0.1,0,0.3-0.1,0.4l-35.7,41.4
							C559.3,208.3,559.2,208.4,559.1,208.4z M565.7,148.2l-6,58.2l34.3-39.8L565.7,148.2z"/>
					</g>
				</g>
			</g>
			<g>
				<g>
					<g>
						<radialGradient id="SVGID_67_" cx="350.8638" cy="100.121" r="269.0377" gradientUnits="userSpaceOnUse">
							<stop  offset="0" style="stop-color:#B3B3B3"/>
							<stop  offset="0.5054" style="stop-color:#E6E6E6"/>
							<stop  offset="1" style="stop-color:#808080"/>
						</radialGradient>
						<path class="st67" d="M734.9,302.6c-0.1,0-0.2,0-0.3-0.1l-78.7-62c-0.1-0.1-0.2-0.2-0.2-0.4c0-0.1,0.1-0.3,0.2-0.4l35.1-30.8
							c0.1-0.1,0.3-0.1,0.4-0.1c0.1,0,0.3,0.1,0.3,0.3l43.6,92.8c0.1,0.2,0,0.4-0.1,0.6C735.1,302.6,735,302.6,734.9,302.6z
							 M657,240.1l76.6,60.4l-42.5-90.4L657,240.1z"/>
					</g>
					<g>
						<radialGradient id="SVGID_68_" cx="350.8635" cy="100.1214" r="269.0376" gradientUnits="userSpaceOnUse">
							<stop  offset="0" style="stop-color:#B3B3B3"/>
							<stop  offset="0.5054" style="stop-color:#E6E6E6"/>
							<stop  offset="1" style="stop-color:#808080"/>
						</radialGradient>
						<path class="st68" d="M691.3,209.8C691.3,209.8,691.2,209.8,691.3,209.8c-0.2,0-0.4-0.1-0.4-0.3l-35.1-67.2
							c-0.1-0.1-0.1-0.3,0-0.5c0.1-0.1,0.2-0.2,0.4-0.2l87.8-6.5c0.2,0,0.4,0.1,0.5,0.2c0.1,0.2,0.1,0.4,0,0.5l-52.7,73.7
							C691.6,209.8,691.4,209.8,691.3,209.8z M657,142.6l34.4,65.8l51.6-72.2L657,142.6z"/>
					</g>
				</g>
				<g>
					<g>
						<radialGradient id="SVGID_69_" cx="350.8636" cy="100.1214" r="269.0377" gradientUnits="userSpaceOnUse">
							<stop  offset="0" style="stop-color:#B3B3B3"/>
							<stop  offset="0.5054" style="stop-color:#E6E6E6"/>
							<stop  offset="1" style="stop-color:#808080"/>
						</radialGradient>
						<path class="st69" d="M734.9,302.6c-0.2,0-0.4-0.1-0.4-0.3l-43.6-92.8c-0.1-0.2,0-0.5,0.2-0.6l100.8-60.2
							c0.2-0.1,0.4-0.1,0.6,0c0.2,0.1,0.2,0.3,0.1,0.5l-57.1,153C735.3,302.5,735.1,302.6,734.9,302.6
							C734.9,302.6,734.9,302.6,734.9,302.6z M691.9,209.5l42.9,91.4l56.3-150.7L691.9,209.5z"/>
					</g>
					<g>
						<radialGradient id="SVGID_70_" cx="350.864" cy="100.1216" r="269.038" gradientUnits="userSpaceOnUse">
							<stop  offset="0" style="stop-color:#B3B3B3"/>
							<stop  offset="0.5054" style="stop-color:#E6E6E6"/>
							<stop  offset="1" style="stop-color:#808080"/>
						</radialGradient>
						<path class="st70" d="M691.3,209.8c0,0-0.1,0-0.1,0l-63.3-18.2c-0.1,0-0.3-0.1-0.3-0.3c-0.1-0.1,0-0.3,0-0.4l28.3-49
							c0.1-0.2,0.3-0.2,0.4-0.2c0.2,0,0.3,0.1,0.4,0.3l35.1,67.2c0.1,0.2,0.1,0.4-0.1,0.5C691.6,209.8,691.4,209.8,691.3,209.8z
							 M628.6,190.9l61.7,17.7l-34.1-65.4L628.6,190.9z"/>
					</g>
				</g>
				<g>
					<g>
						<radialGradient id="SVGID_71_" cx="350.8632" cy="100.1214" r="269.0378" gradientUnits="userSpaceOnUse">
							<stop  offset="0" style="stop-color:#B3B3B3"/>
							<stop  offset="0.5054" style="stop-color:#E6E6E6"/>
							<stop  offset="1" style="stop-color:#808080"/>
						</radialGradient>
						<path class="st71" d="M691.3,209.8c-0.1,0-0.3-0.1-0.4-0.2c-0.2-0.2-0.2-0.4,0-0.6l52.7-73.7c0.1-0.2,0.3-0.2,0.5-0.2
							l48.1,13.5c0.2,0.1,0.3,0.2,0.3,0.4c0,0.2-0.1,0.4-0.2,0.5l-100.8,60.2C691.4,209.8,691.4,209.8,691.3,209.8z M744.1,136.2
							L693,207.7l97.8-58.5L744.1,136.2z"/>
					</g>
					<g>
						<radialGradient id="SVGID_72_" cx="350.8638" cy="100.1215" r="269.0388" gradientUnits="userSpaceOnUse">
							<stop  offset="0" style="stop-color:#B3B3B3"/>
							<stop  offset="0.5054" style="stop-color:#E6E6E6"/>
							<stop  offset="1" style="stop-color:#808080"/>
						</radialGradient>
						<path class="st72" d="M656.2,240.6C656.2,240.6,656.1,240.6,656.2,240.6c-0.2,0-0.3-0.1-0.4-0.2l-28.3-49
							c-0.1-0.2-0.1-0.4,0-0.5c0.1-0.2,0.3-0.2,0.5-0.2l63.3,18.2c0.2,0,0.3,0.2,0.3,0.4c0,0.2,0,0.4-0.2,0.5l-35.1,30.8
							C656.4,240.6,656.3,240.6,656.2,240.6z M628.9,191.9l27.4,47.4l34-29.8L628.9,191.9z"/>
					</g>
				</g>
			</g>
			<g>
				<g>
					<g>
						<radialGradient id="SVGID_73_" cx="350.864" cy="100.1216" r="269.0369" gradientUnits="userSpaceOnUse">
							<stop  offset="0" style="stop-color:#B3B3B3"/>
							<stop  offset="0.5054" style="stop-color:#E6E6E6"/>
							<stop  offset="1" style="stop-color:#808080"/>
						</radialGradient>
						<path class="st73" d="M147,338.9c-0.1,0-0.2,0-0.3-0.1c-0.2-0.2-0.2-0.4-0.1-0.6l50.7-77.4c0.1-0.2,0.3-0.2,0.5-0.2
							c0.2,0,0.3,0.1,0.4,0.3l10.7,30.4c0.1,0.2,0,0.4-0.2,0.5l-61.4,47C147.2,338.8,147.1,338.9,147,338.9z M197.6,262.1L149,336.3
							l58.9-45.1L197.6,262.1z"/>
					</g>
					<g>
						<radialGradient id="SVGID_74_" cx="350.8639" cy="100.1213" r="269.0379" gradientUnits="userSpaceOnUse">
							<stop  offset="0" style="stop-color:#B3B3B3"/>
							<stop  offset="0.5054" style="stop-color:#E6E6E6"/>
							<stop  offset="1" style="stop-color:#808080"/>
						</radialGradient>
						<path class="st74" d="M197.7,261.5c-0.1,0-0.3-0.1-0.4-0.2l-45.6-48c-0.1-0.2-0.2-0.4-0.1-0.6c0.1-0.2,0.3-0.3,0.5-0.2
							l39.9,8.9c0.2,0,0.3,0.2,0.4,0.4l5.7,39c0,0.2-0.1,0.4-0.3,0.5C197.9,261.4,197.8,261.5,197.7,261.5z M153.5,213.8l43.5,45.7
							l-5.5-37.2L153.5,213.8z"/>
					</g>
				</g>
				<g>
					<g>
						<radialGradient id="SVGID_75_" cx="350.8636" cy="100.1214" r="269.037" gradientUnits="userSpaceOnUse">
							<stop  offset="0" style="stop-color:#B3B3B3"/>
							<stop  offset="0.5054" style="stop-color:#E6E6E6"/>
							<stop  offset="1" style="stop-color:#808080"/>
						</radialGradient>
						<path class="st75" d="M250.1,306.4c-0.1,0-0.1,0-0.2,0l-41.7-14.5c-0.1,0-0.2-0.2-0.3-0.3l-10.7-30.4c-0.1-0.2,0-0.4,0.2-0.6
							c0.2-0.1,0.4-0.1,0.6,0l52.4,44.9c0.2,0.2,0.2,0.4,0.1,0.6C250.5,306.3,250.3,306.4,250.1,306.4z M208.8,291l39,13.6
							l-49.1-42.1L208.8,291z"/>
					</g>
					<g>
						<radialGradient id="SVGID_76_" cx="350.8635" cy="100.1213" r="269.0374" gradientUnits="userSpaceOnUse">
							<stop  offset="0" style="stop-color:#B3B3B3"/>
							<stop  offset="0.5054" style="stop-color:#E6E6E6"/>
							<stop  offset="1" style="stop-color:#808080"/>
						</radialGradient>
						<path class="st76" d="M128.6,273.6c-0.1,0-0.3-0.1-0.4-0.2c-0.1-0.1-0.1-0.3-0.1-0.5l23.5-60.1c0.1-0.2,0.2-0.3,0.4-0.3
							c0.2,0,0.3,0,0.4,0.1l45.6,48c0.1,0.1,0.2,0.3,0.1,0.5c-0.1,0.2-0.2,0.3-0.4,0.3L128.6,273.6
							C128.6,273.6,128.6,273.6,128.6,273.6z M152.2,213.9l-22.9,58.6l67.4-11.9L152.2,213.9z"/>
					</g>
				</g>
				<g>
					<g>
						<radialGradient id="SVGID_77_" cx="350.8634" cy="100.1213" r="269.038" gradientUnits="userSpaceOnUse">
							<stop  offset="0" style="stop-color:#B3B3B3"/>
							<stop  offset="0.5054" style="stop-color:#E6E6E6"/>
							<stop  offset="1" style="stop-color:#808080"/>
						</radialGradient>
						<path class="st77" d="M250.1,306.4c-0.1,0-0.2,0-0.3-0.1l-52.4-44.9c-0.1-0.1-0.1-0.2-0.2-0.3l-5.7-39c0-0.2,0.1-0.4,0.3-0.5
							c0.2-0.1,0.4,0,0.6,0.2l58.1,83.9c0.1,0.2,0.1,0.5-0.1,0.6C250.4,306.3,250.2,306.4,250.1,306.4z M198.2,260.7l49.4,42.4
							l-54.8-79.2L198.2,260.7z"/>
					</g>
					<g>
						<radialGradient id="SVGID_78_" cx="350.8636" cy="100.1211" r="269.0381" gradientUnits="userSpaceOnUse">
							<stop  offset="0" style="stop-color:#B3B3B3"/>
							<stop  offset="0.5054" style="stop-color:#E6E6E6"/>
							<stop  offset="1" style="stop-color:#808080"/>
						</radialGradient>
						<path class="st78" d="M147,338.9C147,338.9,147,338.9,147,338.9c-0.3,0-0.4-0.2-0.5-0.4l-18.5-65.2c0-0.1,0-0.3,0.1-0.4
							c0.1-0.1,0.2-0.2,0.3-0.2l69.2-12.2c0.2,0,0.4,0,0.5,0.2c0.1,0.2,0.1,0.4,0,0.5l-50.7,77.4C147.3,338.8,147.2,338.9,147,338.9
							z M129.2,273.5l18,63.7l49.5-75.6L129.2,273.5z"/>
					</g>
				</g>
			</g>
			<g>
				<g>
					<g>
						<radialGradient id="SVGID_79_" cx="350.8633" cy="100.1213" r="269.0381" gradientUnits="userSpaceOnUse">
							<stop  offset="0" style="stop-color:#B3B3B3"/>
							<stop  offset="0.5054" style="stop-color:#E6E6E6"/>
							<stop  offset="1" style="stop-color:#808080"/>
						</radialGradient>
						<path class="st79" d="M81.9,221.4c0,0-0.1,0-0.1,0L21.2,206c-0.2,0-0.3-0.2-0.4-0.4c0-0.2,0-0.4,0.2-0.5l88.9-71.9
							c0.2-0.1,0.4-0.1,0.6,0c0.2,0.1,0.3,0.3,0.2,0.5L82.4,221C82.3,221.2,82.1,221.4,81.9,221.4z M22.3,205.3l59.3,15l27.6-85.2
							L22.3,205.3z"/>
					</g>
					<g>
						<radialGradient id="SVGID_80_" cx="350.8633" cy="100.1214" r="269.0378" gradientUnits="userSpaceOnUse">
							<stop  offset="0" style="stop-color:#B3B3B3"/>
							<stop  offset="0.5054" style="stop-color:#E6E6E6"/>
							<stop  offset="1" style="stop-color:#808080"/>
						</radialGradient>
						<path class="st80" d="M110.2,134.2c-0.1,0-0.2,0-0.3-0.1L61.7,93.8c-0.2-0.1-0.2-0.3-0.1-0.5c0.1-0.2,0.3-0.3,0.5-0.3h56.6
							c0.1,0,0.3,0.1,0.4,0.2c0.1,0.1,0.1,0.3,0.1,0.4l-8.4,40.2c0,0.2-0.2,0.3-0.3,0.4C110.3,134.2,110.2,134.2,110.2,134.2z
							 M63.4,94l46.5,38.8L118,94H63.4z"/>
					</g>
				</g>
				<g>
					<g>
						<radialGradient id="SVGID_81_" cx="350.8636" cy="100.1214" r="269.0379" gradientUnits="userSpaceOnUse">
							<stop  offset="0" style="stop-color:#B3B3B3"/>
							<stop  offset="0.5054" style="stop-color:#E6E6E6"/>
							<stop  offset="1" style="stop-color:#808080"/>
						</radialGradient>
						<path class="st81" d="M81.9,221.4c-0.1,0-0.2,0-0.2-0.1c-0.2-0.1-0.3-0.3-0.2-0.6l28.3-87.2c0-0.1,0.1-0.2,0.3-0.3
							c0.1-0.1,0.3,0,0.4,0l36.8,19.3c0.1,0.1,0.2,0.2,0.3,0.4c0,0.1,0,0.3-0.1,0.4l-65,67.9C82.2,221.3,82,221.4,81.9,221.4z
							 M110.4,134.4L83,219l63.1-65.9L110.4,134.4z"/>
					</g>
					<g>
						<radialGradient id="SVGID_82_" cx="350.8641" cy="100.1214" r="269.0388" gradientUnits="userSpaceOnUse">
							<stop  offset="0" style="stop-color:#B3B3B3"/>
							<stop  offset="0.5054" style="stop-color:#E6E6E6"/>
							<stop  offset="1" style="stop-color:#808080"/>
						</radialGradient>
						<path class="st82" d="M33.8,142.9c-0.2,0-0.3-0.1-0.4-0.2c-0.1-0.2-0.1-0.3,0-0.5l28.3-49c0.1-0.1,0.2-0.2,0.3-0.2
							c0.1,0,0.3,0,0.4,0.1l48.1,40.2c0.1,0.1,0.2,0.3,0.2,0.5c-0.1,0.2-0.2,0.3-0.4,0.3L33.8,142.9
							C33.8,142.9,33.8,142.9,33.8,142.9z M62.2,94.2l-27.5,47.7l74.3-8.5L62.2,94.2z"/>
					</g>
				</g>
				<g>
					<g>
						<radialGradient id="SVGID_83_" cx="350.8637" cy="100.1214" r="269.0382" gradientUnits="userSpaceOnUse">
							<stop  offset="0" style="stop-color:#B3B3B3"/>
							<stop  offset="0.5054" style="stop-color:#E6E6E6"/>
							<stop  offset="1" style="stop-color:#808080"/>
						</radialGradient>
						<path class="st83" d="M147,153.5c-0.1,0-0.2,0-0.2-0.1l-36.8-19.3c-0.2-0.1-0.3-0.3-0.2-0.5l8.4-40.2c0-0.2,0.2-0.4,0.4-0.4
							c0.2,0,0.4,0.1,0.5,0.3l28.3,59.6c0.1,0.2,0,0.4-0.1,0.6C147.2,153.5,147.1,153.5,147,153.5z M110.7,133.4l35.2,18.5l-27.1-57
							L110.7,133.4z"/>
					</g>
					<g>
						<radialGradient id="SVGID_84_" cx="350.864" cy="100.1213" r="269.0377" gradientUnits="userSpaceOnUse">
							<stop  offset="0" style="stop-color:#B3B3B3"/>
							<stop  offset="0.5054" style="stop-color:#E6E6E6"/>
							<stop  offset="1" style="stop-color:#808080"/>
						</radialGradient>
						<path class="st84" d="M21.3,206c-0.1,0-0.2,0-0.3-0.1c-0.2-0.1-0.3-0.3-0.2-0.5l12.5-63.1c0-0.2,0.2-0.4,0.4-0.4l76.4-8.8
							c0.2,0,0.4,0.1,0.5,0.3c0.1,0.2,0,0.4-0.1,0.6l-88.9,71.9C21.5,206,21.4,206,21.3,206z M34.2,142.9L22,204.3l86.5-70
							L34.2,142.9z"/>
					</g>
				</g>
			</g>
			<g>
				<g>
					<g>
						<radialGradient id="SVGID_85_" cx="350.8641" cy="100.1214" r="269.0372" gradientUnits="userSpaceOnUse">
							<stop  offset="0" style="stop-color:#B3B3B3"/>
							<stop  offset="0.5054" style="stop-color:#E6E6E6"/>
							<stop  offset="1" style="stop-color:#808080"/>
						</radialGradient>
						<path class="st85" d="M656.2,142.9c-0.2,0-0.4-0.1-0.4-0.3c-0.1-0.2-0.1-0.4,0.1-0.5l53.2-59.6c0.1-0.1,0.2-0.2,0.4-0.2
							c0.2,0,0.3,0.1,0.4,0.2l34.5,53c0.1,0.1,0.1,0.3,0,0.5c-0.1,0.2-0.2,0.3-0.4,0.3L656.2,142.9
							C656.2,142.9,656.2,142.9,656.2,142.9z M709.4,83.6l-52,58.2l85.7-6.4L709.4,83.6z"/>
					</g>
					<g>
						<radialGradient id="SVGID_86_" cx="350.8636" cy="100.1213" r="269.0377" gradientUnits="userSpaceOnUse">
							<stop  offset="0" style="stop-color:#B3B3B3"/>
							<stop  offset="0.5054" style="stop-color:#E6E6E6"/>
							<stop  offset="1" style="stop-color:#808080"/>
						</radialGradient>
						<path class="st86" d="M709.4,83.3c-0.1,0-0.3-0.1-0.4-0.2l-35.4-38.6c-0.1-0.1-0.2-0.3-0.1-0.5c0-0.2,0.2-0.3,0.3-0.3
							L764.3,19c0.2-0.1,0.4,0,0.5,0.2c0.1,0.2,0.1,0.4,0,0.6l-55,63.3C709.7,83.3,709.6,83.3,709.4,83.3
							C709.4,83.3,709.4,83.3,709.4,83.3z M674.9,44.5l34.5,37.6L763,20.4L674.9,44.5z"/>
					</g>
				</g>
				<g>
					<g>
						<radialGradient id="SVGID_87_" cx="350.8638" cy="100.1214" r="269.0375" gradientUnits="userSpaceOnUse">
							<stop  offset="0" style="stop-color:#B3B3B3"/>
							<stop  offset="0.5054" style="stop-color:#E6E6E6"/>
							<stop  offset="1" style="stop-color:#808080"/>
						</radialGradient>
						<path class="st87" d="M743.9,136.4C743.9,136.4,743.9,136.4,743.9,136.4c-0.2,0-0.3-0.1-0.4-0.2l-34.5-53
							c-0.1-0.2-0.1-0.4,0-0.6c0.1-0.2,0.4-0.2,0.6-0.1l69,27.5c0.2,0.1,0.3,0.2,0.3,0.4c0,0.2-0.1,0.3-0.2,0.5l-34.5,25.5
							C744.2,136.3,744.1,136.4,743.9,136.4z M710.7,83.8l33.4,51.3l33.4-24.7L710.7,83.8z"/>
					</g>
					<g>
						<radialGradient id="SVGID_88_" cx="350.8635" cy="100.1214" r="269.0378" gradientUnits="userSpaceOnUse">
							<stop  offset="0" style="stop-color:#B3B3B3"/>
							<stop  offset="0.5054" style="stop-color:#E6E6E6"/>
							<stop  offset="1" style="stop-color:#808080"/>
						</radialGradient>
						<path class="st88" d="M627.9,93.9c-0.2,0-0.3-0.1-0.4-0.3c-0.1-0.2-0.1-0.4,0.1-0.6l46.1-49.2c0.1-0.1,0.2-0.2,0.4-0.2
							c0.1,0,0.3,0.1,0.4,0.2l35.4,38.6c0.1,0.1,0.2,0.3,0.1,0.5c-0.1,0.2-0.2,0.3-0.4,0.3L627.9,93.9
							C628,93.9,627.9,93.9,627.9,93.9z M674,44.9l-44.8,47.8l79.3-10.3L674,44.9z"/>
					</g>
				</g>
				<g>
					<g>
						<radialGradient id="SVGID_89_" cx="350.8636" cy="100.1214" r="269.0377" gradientUnits="userSpaceOnUse">
							<stop  offset="0" style="stop-color:#B3B3B3"/>
							<stop  offset="0.5054" style="stop-color:#E6E6E6"/>
							<stop  offset="1" style="stop-color:#808080"/>
						</radialGradient>
						<path class="st89" d="M778.5,110.9c-0.1,0-0.1,0-0.2,0l-69-27.5c-0.1-0.1-0.3-0.2-0.3-0.3c0-0.2,0-0.3,0.1-0.4l55-63.3
							c0.1-0.1,0.3-0.2,0.5-0.1c0.2,0.1,0.3,0.2,0.3,0.4l14.1,90.9c0,0.2,0,0.3-0.2,0.5C778.7,110.8,778.6,110.9,778.5,110.9z
							 M710.2,82.6l67.6,27l-13.8-89L710.2,82.6z"/>
					</g>
					<g>
						<radialGradient id="SVGID_90_" cx="350.8638" cy="100.1213" r="269.0363" gradientUnits="userSpaceOnUse">
							<stop  offset="0" style="stop-color:#B3B3B3"/>
							<stop  offset="0.5054" style="stop-color:#E6E6E6"/>
							<stop  offset="1" style="stop-color:#808080"/>
						</radialGradient>
						<path class="st90" d="M656.2,142.9C656.2,142.9,656.2,142.9,656.2,142.9c-0.2,0-0.3-0.1-0.4-0.2l-28.3-49
							c-0.1-0.1-0.1-0.3,0-0.5c0.1-0.1,0.2-0.2,0.4-0.3l81.5-10.6c0.2,0,0.4,0.1,0.5,0.3c0.1,0.2,0.1,0.4-0.1,0.5l-53.2,59.6
							C656.5,142.8,656.3,142.9,656.2,142.9z M628.7,93.8l27.6,47.8l51.9-58.1L628.7,93.8z"/>
					</g>
				</g>
			</g>
			<g>
				<g>
					<g>
						<radialGradient id="SVGID_91_" cx="350.8637" cy="100.1214" r="269.0372" gradientUnits="userSpaceOnUse">
							<stop  offset="0" style="stop-color:#B3B3B3"/>
							<stop  offset="0.5054" style="stop-color:#E6E6E6"/>
							<stop  offset="1" style="stop-color:#808080"/>
						</radialGradient>
						<path class="st91" d="M401.6,191.6c-0.2,0-0.4-0.1-0.5-0.3c-0.1-0.2,0-0.5,0.2-0.6l49.5-28.6c0.2-0.1,0.4-0.1,0.6,0.1l15.1,16
							c0.1,0.1,0.2,0.3,0.1,0.5c-0.1,0.2-0.2,0.3-0.4,0.3L401.6,191.6C401.7,191.6,401.7,191.6,401.6,191.6z M451,163.2l-46.6,26.9
							l60.9-11.9L451,163.2z"/>
					</g>
					<g>
						<radialGradient id="SVGID_92_" cx="350.8636" cy="100.1213" r="269.0375" gradientUnits="userSpaceOnUse">
							<stop  offset="0" style="stop-color:#B3B3B3"/>
							<stop  offset="0.5054" style="stop-color:#E6E6E6"/>
							<stop  offset="1" style="stop-color:#808080"/>
						</radialGradient>
						<path class="st92" d="M451.1,163.1c-0.1,0-0.2,0-0.3-0.1l-74-60.7c-0.2-0.1-0.2-0.3-0.2-0.5c0.1-0.2,0.2-0.3,0.4-0.3l81.1-8.7
							c0.2,0,0.3,0,0.4,0.1c0.1,0.1,0.2,0.2,0.1,0.4l-7.1,69.4c0,0.2-0.1,0.3-0.3,0.4C451.2,163.1,451.2,163.1,451.1,163.1z
							 M378.3,102.3l72.4,59.4l6.9-67.9L378.3,102.3z"/>
					</g>
				</g>
				<g>
					<g>
						<radialGradient id="SVGID_93_" cx="350.8635" cy="100.1212" r="269.0376" gradientUnits="userSpaceOnUse">
							<stop  offset="0" style="stop-color:#B3B3B3"/>
							<stop  offset="0.5054" style="stop-color:#E6E6E6"/>
							<stop  offset="1" style="stop-color:#808080"/>
						</radialGradient>
						<path class="st93" d="M466.2,179c-0.1,0-0.3-0.1-0.4-0.2l-15.1-16c-0.1-0.1-0.2-0.3-0.1-0.4c0-0.2,0.2-0.3,0.3-0.3l57.6-20.1
							c0.2-0.1,0.5,0,0.6,0.2c0.1,0.2,0.1,0.5-0.1,0.6l-42.6,36.1C466.4,179,466.3,179,466.2,179z M452,162.8l14.2,15.1l40.2-34.1
							L452,162.8z"/>
					</g>
					<g>
						<radialGradient id="SVGID_94_" cx="350.8637" cy="100.1214" r="269.0378" gradientUnits="userSpaceOnUse">
							<stop  offset="0" style="stop-color:#B3B3B3"/>
							<stop  offset="0.5054" style="stop-color:#E6E6E6"/>
							<stop  offset="1" style="stop-color:#808080"/>
						</radialGradient>
						<path class="st94" d="M451.1,163.1c0,0-0.1,0-0.1,0l-77.8-20.4c-0.2-0.1-0.4-0.3-0.4-0.5l3.8-40.3c0-0.2,0.1-0.3,0.3-0.4
							c0.2-0.1,0.4,0,0.5,0.1l74,60.7c0.2,0.1,0.2,0.4,0.1,0.6C451.5,163,451.3,163.1,451.1,163.1z M373.9,141.8l75.2,19.7
							l-71.6-58.7L373.9,141.8z"/>
					</g>
				</g>
				<g>
					<g>
						<radialGradient id="SVGID_95_" cx="350.8638" cy="100.1214" r="269.038" gradientUnits="userSpaceOnUse">
							<stop  offset="0" style="stop-color:#B3B3B3"/>
							<stop  offset="0.5054" style="stop-color:#E6E6E6"/>
							<stop  offset="1" style="stop-color:#808080"/>
						</radialGradient>
						<path class="st95" d="M451.1,163.1c-0.1,0-0.2,0-0.3-0.1c-0.1-0.1-0.2-0.3-0.2-0.4l7.1-69.4c0-0.2,0.1-0.3,0.3-0.4
							c0.2-0.1,0.4,0,0.5,0.1l50.6,49.3c0.1,0.1,0.2,0.3,0.1,0.5c0,0.2-0.2,0.3-0.3,0.4L451.3,163
							C451.2,163.1,451.2,163.1,451.1,163.1z M458.6,94.2l-6.9,67.6l56.2-19.6L458.6,94.2z"/>
					</g>
					<g>
						<radialGradient id="SVGID_96_" cx="350.8637" cy="100.1216" r="269.0374" gradientUnits="userSpaceOnUse">
							<stop  offset="0" style="stop-color:#B3B3B3"/>
							<stop  offset="0.5054" style="stop-color:#E6E6E6"/>
							<stop  offset="1" style="stop-color:#808080"/>
						</radialGradient>
						<path class="st96" d="M401.6,191.6c0,0-0.1,0-0.1,0c-0.1,0-0.2-0.1-0.3-0.2l-28.3-49c-0.1-0.2-0.1-0.4,0-0.5
							c0.1-0.2,0.3-0.2,0.5-0.2l77.8,20.4c0.2,0,0.3,0.2,0.4,0.4c0,0.2-0.1,0.4-0.2,0.5l-49.5,28.6
							C401.8,191.6,401.7,191.6,401.6,191.6z M374.4,142.9l27.5,47.6l48-27.7L374.4,142.9z"/>
					</g>
				</g>
			</g>
		</g>
		<circle class="st97" cx="466.2" cy="180.2" r="17.3"/>
		<g>
			<g>
				<g>
					<g>
						<path class="st98" d="M469.5,180.2c0,2.5,2,4.4,4.4,4.4c1.9,0,3.6-1.2,4.2-3h-4.2v-3h4.2c-0.6-1.7-2.3-3-4.2-3
							C471.5,175.8,469.5,177.7,469.5,180.2z"/>
						<path class="st98" d="M462.5,180.2c0-2.5-2-4.4-4.4-4.4c-1.9,0-3.6,1.2-4.2,3h4.2v3h-4.2c0.6,1.7,2.3,3,4.2,3
							C460.5,184.6,462.5,182.6,462.5,180.2z"/>
					</g>
					<rect x="461" y="178.7" class="st98" width="10.4" height="3"/>
				</g>
			</g>
			<path class="st99" d="M458.1,180.2h15.9v-1.5h4.2c-0.6-1.7-2.3-3-4.2-3c-1.9,0-3.6,1.2-4.2,3h-7.5c-0.6-1.7-2.3-3-4.2-3
				c-1.9,0-3.6,1.2-4.2,3h4.2V180.2z"/>
		</g>
		
			<ellipse transform="matrix(0.1593 -0.9872 0.9872 0.1593 77.4842 569.7466)" class="st100" cx="373.3" cy="239.4" rx="18.6" ry="18.6"/>
		<g>
			<g>
				
					<rect x="368.7" y="229.5" transform="matrix(-1.836970e-16 1 -1 -1.836970e-16 606.1107 -140.3965)" class="st98" width="9.1" height="6.7"/>
				
					<rect x="372.9" y="233.6" transform="matrix(-1.836970e-16 1 -1 -1.836970e-16 610.2407 -136.2666)" class="st101" width="0.8" height="6.7"/>
				
					<rect x="370.4" y="231.2" transform="matrix(-1.836970e-16 1 -1 -1.836970e-16 607.7817 -142.0676)" class="st99" width="9.1" height="3.3"/>
				<g>
					<polygon class="st98" points="373.3,244.3 366.3,237.3 380.2,237.3 					"/>
					<polygon class="st99" points="373.3,244.3 380.2,237.3 373.3,237.3 					"/>
				</g>
			</g>
			<g>
				<g>
					<polygon class="st98" points="383.4,250.4 363.1,250.4 363.1,243.1 365.7,243.1 365.7,247.8 380.8,247.8 380.8,243.1 
						383.4,243.1 					"/>
				</g>
				<polygon class="st99" points="364.4,243.1 364.4,249.1 382.1,249.1 382.1,243.1 380.8,243.1 380.8,247.8 365.7,247.8 
					365.7,243.1 				"/>
			</g>
		</g>
		<circle class="st97" cx="269.5" cy="134.8" r="22.4"/>
		<g>
			
				<ellipse transform="matrix(0.2298 -0.9732 0.9732 0.2298 189.2281 710.2189)" class="st102" cx="543.3" cy="235.6" rx="15.6" ry="15.6"/>
			<g>
				<g>
					<g>
						<path class="st98" d="M546.1,230.4c0.4,0.3,0.7,0.7,0.7,1.2l1.1-0.1c-0.1-0.8-0.5-1.5-1.2-2c-0.7-0.5-1.5-0.6-2.3-0.4l0.3,1.1
							C545.1,230.1,545.7,230.1,546.1,230.4z"/>
						<path class="st98" d="M547.3,228.7c1,0.6,1.5,1.6,1.7,2.7l1.1-0.1c-0.2-1.4-0.9-2.6-2.1-3.5s-2.7-1-4-0.7l0.3,1.1
							C545.2,227.9,546.3,228,547.3,228.7z"/>
						<path class="st98" d="M548.5,226.9c1.5,1,2.4,2.6,2.6,4.2l1.1-0.1c-0.2-2-1.3-3.8-3.1-5c-1.8-1.2-3.9-1.5-5.8-1l0.3,1.1
							C545.2,225.6,547,225.8,548.5,226.9z"/>
					</g>
					<g class="st103">
						<path class="st98" d="M546.7,229.5L546.7,229.5l-0.6,0.9l0,0c0.4,0.3,0.7,0.7,0.7,1.2l1.1-0.1
							C547.8,230.7,547.4,230,546.7,229.5z"/>
						<path class="st98" d="M547.9,227.8L547.9,227.8l-0.6,0.9v0c1,0.6,1.5,1.6,1.7,2.7l1.1-0.1
							C549.8,229.9,549.1,228.6,547.9,227.8z"/>
						<path class="st98" d="M549.1,225.9L549.1,225.9l-0.6,0.9l0,0c1.5,1,2.4,2.6,2.6,4.2l1.1-0.1
							C551.9,229,550.9,227.1,549.1,225.9z"/>
					</g>
				</g>
				<path class="st98" d="M554.4,241.3c0-0.1,0-0.1,0-0.2c0.1-1.2-0.7-2.3-1.8-2.4c-0.2,0-0.4,0-0.6,0c-0.6-1.9-2.1-3.2-3.9-3.2
					c-0.5,0-0.9,0.1-1.4,0.3c-1-2.2-2.9-3.7-5.2-3.7c-2.7,0-5,2.2-5.7,5.1c-2,0-3.6,1.8-3.8,4.1H554.4z"/>
			</g>
		</g>
		<path class="st0" d="M420.5,207.5c-0.4,1.8-2.1,3.1-4,2.7c-1.8-0.4-3.1-2.1-2.7-4c0.4-1.8,2.1-3.1,4-2.7
			C419.6,203.8,420.8,205.6,420.5,207.5z"/>
		<ellipse transform="matrix(0.8536 -0.521 0.521 0.8536 -95.844 201.4497)" class="st0" cx="310.5" cy="271.2" rx="3.4" ry="3.4"/>
		<path class="st0" d="M403.3,190.8c-0.2,1-1.2,1.7-2.2,1.5c-1-0.2-1.7-1.2-1.5-2.2c0.2-1,1.2-1.7,2.2-1.5S403.5,189.8,403.3,190.8z
			"/>
		<path class="st0" d="M453,162c-0.2,1-1.2,1.7-2.2,1.5c-1-0.2-1.7-1.2-1.5-2.2c0.2-1,1.2-1.7,2.2-1.5
			C452.5,159.9,453.2,160.9,453,162z"/>
		<path class="st0" d="M511.5,142c-0.3,1.5-1.8,2.5-3.3,2.2c-1.5-0.3-2.5-1.8-2.2-3.3c0.3-1.5,1.8-2.5,3.3-2.2
			C510.8,139.1,511.8,140.5,511.5,142z"/>
		<path class="st0" d="M567.7,146.6c-0.3,1.3-1.5,2.1-2.8,1.9c-1.3-0.3-2.1-1.5-1.9-2.8c0.3-1.3,1.5-2.1,2.8-1.9
			C567.1,144,567.9,145.3,567.7,146.6z"/>
		<path class="st0" d="M597.1,166c-0.3,1.3-1.5,2.1-2.8,1.9c-1.3-0.3-2.1-1.5-1.9-2.8c0.3-1.3,1.5-2.1,2.8-1.9
			C596.5,163.5,597.3,164.7,597.1,166z"/>
		<path class="st0" d="M747.6,136.8c-0.4,2-2.3,3.3-4.3,2.9c-2-0.4-3.3-2.3-2.9-4.3s2.3-3.3,4.3-2.9
			C746.7,132.9,748,134.8,747.6,136.8z"/>
		<path class="st0" d="M659,143.2c-0.3,1.5-1.7,2.4-3.2,2.2c-1.5-0.3-2.4-1.7-2.2-3.2c0.3-1.5,1.7-2.4,3.2-2.2
			S659.3,141.8,659,143.2z"/>
		<path class="st0" d="M693,209.6c-0.2,1.2-1.4,2-2.7,1.8c-1.2-0.2-2-1.4-1.8-2.7c0.2-1.2,1.4-2,2.7-1.8
			C692.5,207.1,693.3,208.3,693,209.6z"/>
		<path class="st0" d="M737.2,302.8c-0.2,1.2-1.4,2-2.7,1.8c-1.2-0.2-2-1.4-1.8-2.7c0.2-1.2,1.4-2,2.7-1.8
			C736.7,300.3,737.5,301.5,737.2,302.8z"/>
		<path class="st0" d="M710.8,82.9c-0.2,1.2-1.4,2-2.7,1.8c-1.2-0.2-2-1.4-1.8-2.7c0.2-1.2,1.4-2,2.7-1.8
			C710.2,80.4,711,81.6,710.8,82.9z"/>
		<path class="st0" d="M676.2,44.7c-0.2,1.2-1.4,2-2.7,1.8c-1.2-0.2-2-1.4-1.8-2.7c0.2-1.2,1.4-2,2.7-1.8
			C675.7,42.3,676.5,43.5,676.2,44.7z"/>
		<path class="st0" d="M489,239.7c-0.3,1.4-1.6,2.3-3.1,2.1c-1.4-0.3-2.3-1.6-2.1-3.1s1.6-2.3,3.1-2.1
			C488.4,236.9,489.3,238.2,489,239.7z"/>
		<path class="st0" d="M324.5,78.4c-0.4,2.2-2.6,3.7-4.9,3.3c-2.2-0.4-3.7-2.6-3.3-4.9c0.4-2.2,2.6-3.7,4.9-3.3
			C323.5,73.9,325,76.1,324.5,78.4z"/>
		<path class="st0" d="M319.1,141.7c-0.3,1.4-1.6,2.3-3,2c-1.4-0.3-2.3-1.6-2-3c0.3-1.4,1.6-2.3,3-2
			C318.5,139,319.4,140.3,319.1,141.7z"/>
		<path class="st0" d="M206.3,142.6c-0.3,1.7-2,2.9-3.8,2.6c-1.7-0.3-2.9-2-2.6-3.8c0.3-1.7,2-2.9,3.8-2.6
			C205.5,139.1,206.6,140.8,206.3,142.6z"/>
		<path class="st0" d="M121.8,93.7c-0.3,1.7-2,2.9-3.8,2.6c-1.7-0.3-2.9-2-2.6-3.8c0.3-1.7,2-2.9,3.8-2.6
			C121,90.3,122.1,92,121.8,93.7z"/>
		<path class="st0" d="M148.8,152c-0.2,1.2-1.4,2-2.7,1.8c-1.2-0.2-2-1.4-1.8-2.7c0.2-1.2,1.4-2,2.7-1.8
			C148.2,149.6,149,150.8,148.8,152z"/>
		<path class="st0" d="M154.3,212.6c-0.2,1.2-1.4,2-2.7,1.8c-1.2-0.2-2-1.4-1.8-2.7c0.2-1.2,1.4-2,2.7-1.8
			C153.7,210.1,154.6,211.3,154.3,212.6z"/>
		<path class="st0" d="M196.2,222.3c-0.4,2.1-2.4,3.4-4.5,3c-2.1-0.4-3.4-2.4-3-4.5c0.4-2.1,2.4-3.4,4.5-3
			C195.3,218.2,196.6,220.2,196.2,222.3z"/>
		<path class="st0" d="M283.1,203.8c-0.3,1.3-1.5,2.1-2.8,1.9c-1.3-0.3-2.1-1.5-1.9-2.8c0.3-1.3,1.5-2.1,2.8-1.9
			C282.5,201.3,283.4,202.5,283.1,203.8z"/>
		<g>
			
				<ellipse transform="matrix(0.2298 -0.9732 0.9732 0.2298 343.9506 640.2509)" class="st100" cx="576.5" cy="102.8" rx="20.4" ry="20.4"/>
			<g>
				<g>
					<polygon class="st98" points="564.8,95.4 564.8,110.1 573.2,102 					"/>
					<polygon class="st98" points="588.1,110.1 588.1,95.4 579.7,102 					"/>
					<polygon class="st98" points="576.5,104.5 574,102.6 565.5,110.7 587.4,110.7 578.9,102.6 					"/>
					<polygon class="st98" points="587.2,94.9 579,101.3 578.6,101.6 578.2,101.9 576.5,103.3 574.7,101.9 574.3,101.6 573.9,101.3 
						565.7,94.9 					"/>
				</g>
			</g>
		</g>
		<g>
			<g>
				<g>
					<path class="st98" d="M277.4,127.8c0.2,0.7,0.1,1.4-0.2,2l1.4,0.8c0.6-1,0.7-2.2,0.4-3.3c-0.4-1.1-1.2-2-2.3-2.4l-0.6,1.4
						C276.6,126.6,277.2,127.1,277.4,127.8z"/>
					<path class="st98" d="M280.3,126.9c0.5,1.6,0.3,3.2-0.5,4.5l1.3,0.8c1-1.7,1.3-3.8,0.6-5.8c-0.7-2-2.2-3.5-4-4.3l-0.6,1.4
						C278.6,124.2,279.7,125.3,280.3,126.9z"/>
					<path class="st98" d="M283.2,125.9c0.8,2.5,0.5,5-0.8,7.1l1.3,0.8c1.4-2.4,1.9-5.5,0.9-8.4c-1-2.9-3.1-5.1-5.7-6.2l-0.6,1.4
						C280.6,121.6,282.4,123.5,283.2,125.9z"/>
				</g>
				<g class="st103">
					<path class="st98" d="M278.9,127.4L278.9,127.4l-1.5,0.5v0c0.2,0.7,0.1,1.4-0.2,2l1.4,0.8C279.1,129.7,279.3,128.5,278.9,127.4
						z"/>
					<path class="st98" d="M281.7,126.4L281.7,126.4l-1.5,0.5v0c0.5,1.6,0.3,3.2-0.5,4.5l1.3,0.8
						C282.1,130.5,282.4,128.4,281.7,126.4z"/>
					<path class="st98" d="M284.7,125.4L284.7,125.4l-1.5,0.5v0c0.8,2.5,0.5,5-0.8,7.1l1.3,0.8C285.3,131.3,285.7,128.3,284.7,125.4
						z"/>
				</g>
			</g>
			<path class="st98" d="M272.7,134.1c1.7-0.9,2.5-2.9,1.7-4.7c-0.8-1.8-2.9-2.6-4.7-1.8L272.7,134.1z"/>
			<polygon class="st98" points="267.1,148.1 256.7,148.1 258.7,139.1 265.1,139.1 			"/>
			<polygon class="st99" points="265.1,139.1 256.7,148.1 267.1,148.1 			"/>
			<polygon class="st104" points="267.1,148.1 256.7,148.1 256.9,147.4 266.9,147.4 			"/>
			<path class="st98" d="M265.7,121.3c-5,2.5-7.2,8.5-4.9,13.7c2.3,5.2,8.3,7.5,13.5,5.3L265.7,121.3z"/>
			<path class="st98" d="M265.3,136.8c0,2.4-1.9,4.3-4.3,4.3c-2.4,0-4.3-1.9-4.3-4.3c0-2.4,1.9-4.3,4.3-4.3
				C263.3,132.6,265.3,134.5,265.3,136.8z"/>
			<path class="st104" d="M264,136.8c0,1.7-1.4,3-3,3s-3-1.4-3-3c0-1.7,1.4-3,3-3S264,135.2,264,136.8z"/>
		</g>
		<polygon class="st105" points="128.6,272.2 26.3,258 16.6,301.2 31.9,347.6 		"/>
		<g>
			<circle class="st100" cx="182.2" cy="180.6" r="11.5"/>
			<g>
				<g>
					<path class="st98" d="M182.2,173.6c-2.9,0-5.3,2.4-5.3,5.3s5.3,8.6,5.3,8.6s5.3-5.7,5.3-8.6S185.1,173.6,182.2,173.6z
						 M182.2,182c-1.7,0-3-1.4-3-3c0-1.7,1.4-3,3-3c1.7,0,3,1.4,3,3C185.2,180.6,183.9,182,182.2,182z"/>
				</g>
				<path class="st99" d="M182.2,173.6v2.3c1.7,0,3,1.4,3,3c0,1.7-1.4,3-3,3v5.6c0,0,5.3-5.7,5.3-8.6S185.1,173.6,182.2,173.6z"/>
			</g>
		</g>
		<g>
			
				<ellipse transform="matrix(0.1593 -0.9872 0.9872 0.1593 -22.9363 459.2955)" class="st102" cx="258.2" cy="243.1" rx="16.9" ry="16.9"/>
			<g>
				<path class="st98" d="M266.5,248.6H250c-1.2,0-2.1-1-2.1-2.1V237c0-1.2,1-2.1,2.1-2.1h16.5c1.2,0,2.1,1,2.1,2.1v9.4
					C268.6,247.6,267.7,248.6,266.5,248.6z"/>
				<polygon class="st98" points="252.4,253.1 250.3,248.3 256.3,248.3 				"/>
				<g>
					<path class="st102" d="M265.6,238.9c0.2,0,0.4,0.2,0.4,0.4l0,0c0,0.2-0.2,0.4-0.4,0.4h-14.8c-0.2,0-0.4-0.2-0.4-0.4l0,0
						c0-0.2,0.2-0.4,0.4-0.4"/>
					<path class="st102" d="M265.6,242.1h-14.8c-0.2,0-0.4-0.2-0.4-0.4l0,0c0-0.2,0.2-0.4,0.4-0.4h14.8c0.2,0,0.4,0.2,0.4,0.4l0,0
						C266.1,241.9,265.9,242.1,265.6,242.1z"/>
					<path class="st102" d="M265.6,244.4h-14.8c-0.2,0-0.4-0.2-0.4-0.4l0,0c0-0.2,0.2-0.4,0.4-0.4h14.8c0.2,0,0.4,0.2,0.4,0.4l0,0
						C266.1,244.2,265.9,244.4,265.6,244.4z"/>
				</g>
			</g>
		</g>
		<g>
			
				<ellipse transform="matrix(0.9239 -0.3827 0.3827 0.9239 -24.9734 255.3976)" class="st100" cx="629.5" cy="190.5" rx="14.4" ry="14.4"/>
			<g>
				<g>
					<path class="st98" d="M622.9,193l-1.2,0c-0.3-0.8-0.4-1.7-0.4-2.5l1-0.5c0.1-0.8,0.2-1.1,0.3-1.9l-0.7-0.6
						c0.3-0.8,0.8-1.6,1.3-2.3l0.8,0.2c0.6-0.6,0.8-0.7,1.4-1.3l-0.1-0.8c0.8-0.5,1.6-0.8,2.5-1l0.4,0.7c0.8,0,1.1,0,1.9-0.1
						l0.4-0.7c0.9,0.1,1.8,0.4,2.6,0.8l-0.1,0.9c0.7,0.5,0.8,0.7,1.5,1.2l0.9-0.3c0.6,0.6,1.1,1.4,1.5,2.2l-0.8,0.8
						c0.2,0.8,0.2,1.1,0.4,1.9l1.2,0.4c0,0.1,0,0.3,0,0.4c0,0.7-0.1,1.4-0.3,2.1l-1.3,0.1c-0.4,0.7-0.5,1-0.9,1.7l0.7,1.3
						c-0.5,0.6-1.1,1.2-1.8,1.7l-1.2-0.9c-0.8,0.3-1,0.4-1.8,0.7l-0.3,1.5c-0.5,0.1-0.9,0.1-1.4,0.1c-0.3,0-0.7,0-1-0.1l-0.4-1.5
						c-0.8-0.3-1-0.3-1.8-0.6l-1.1,0.9c-0.7-0.4-1.3-1-1.9-1.6l0.6-1.2C623.4,193.9,623.3,193.7,622.9,193z"/>
				</g>
				<path class="st106" d="M634,190.5c0,2.5-2,4.5-4.5,4.5s-4.5-2-4.5-4.5s2-4.5,4.5-4.5S634,188,634,190.5z"/>
			</g>
		</g>
		<g class="st103">
			<path class="st98" d="M629.5,198.7c0.3,0,0.6,0,0.9-0.1h-1.8C628.9,198.7,629.2,198.7,629.5,198.7z"/>
		</g>
		<g>
			<circle class="st102" cx="110.2" cy="133.3" r="14.8"/>
			<g>
				<polyline class="st107" points="101.2,132.9 110.9,139.7 116.9,125.8 				"/>
				<g>
					<circle class="st98" cx="102" cy="133.5" r="2.2"/>
				</g>
				<g>
					<circle class="st98" cx="110.9" cy="139.7" r="2.2"/>
				</g>
				<g>
					<path class="st98" d="M119.2,125.8c0,1.2-1,2.2-2.2,2.2c-1.2,0-2.2-1-2.2-2.2c0-1.2,1-2.2,2.2-2.2
						C118.2,123.5,119.2,124.5,119.2,125.8z"/>
				</g>
			</g>
		</g>
		<g>
			<circle class="st97" cx="197.7" cy="263.1" r="13.2"/>
			<g>
				<g>
					<path class="st98" d="M197.7,267.5c0.9,0,1.8,0.4,2.4,1.1l1.5-1.3c-0.9-1.1-2.3-1.8-3.9-1.8c-1.5,0-2.9,0.7-3.9,1.7l1.5,1.3
						C195.9,267.9,196.7,267.4,197.7,267.5z"/>
					<path class="st98" d="M197.7,263.6c2.1,0,4,1,5.3,2.5l1.5-1.3c-1.6-1.9-4-3.1-6.8-3.2c-2.7,0-5.1,1.1-6.8,3l1.5,1.3
						C193.7,264.5,195.6,263.6,197.7,263.6z"/>
					<path class="st98" d="M197.7,259.6c3.3,0,6.3,1.5,8.3,3.9l1.5-1.3c-2.4-2.8-5.8-4.5-9.7-4.6c-3.9,0-7.4,1.7-9.8,4.4l1.5,1.3
						C191.5,261,194.4,259.6,197.7,259.6z"/>
				</g>
			</g>
		</g>
		<g>
			
				<ellipse transform="matrix(0.6235 -0.7819 0.7819 0.6235 98.236 390.6648)" class="st102" cx="454.7" cy="93.3" rx="18.3" ry="18.3"/>
			<g>
				<g>
					<g>
						<g>
							<path class="st98" d="M467.3,102.2h-23.6c-0.3-0.3-0.4-0.4-0.7-0.7v-4.3c0.3-0.3,0.4-0.4,0.7-0.7h23.6
								c0.3,0.3,0.4,0.4,0.7,0.7v4.3C467.7,101.8,467.6,102,467.3,102.2z"/>
							<g>
								<path class="st102" d="M447.3,99.4c0,0.4-0.3,0.7-0.7,0.7c-0.4,0-0.7-0.3-0.7-0.7c0-0.4,0.3-0.7,0.7-0.7
									C447,98.8,447.3,99.1,447.3,99.4z"/>
								<path class="st102" d="M450.9,99.4c0,0.4-0.3,0.7-0.7,0.7c-0.4,0-0.7-0.3-0.7-0.7c0-0.4,0.3-0.7,0.7-0.7
									C450.6,98.8,450.9,99.1,450.9,99.4z"/>
								<path class="st102" d="M454.4,99.4c0,0.4-0.3,0.7-0.7,0.7c-0.4,0-0.7-0.3-0.7-0.7c0-0.4,0.3-0.7,0.7-0.7
									C454.1,98.8,454.4,99.1,454.4,99.4z"/>
								<path class="st102" d="M457.9,99.4c0,0.4-0.3,0.7-0.7,0.7c-0.4,0-0.7-0.3-0.7-0.7c0-0.4,0.3-0.7,0.7-0.7
									C457.6,98.8,457.9,99.1,457.9,99.4z"/>
								<path class="st102" d="M461.5,99.4c0,0.4-0.3,0.7-0.7,0.7c-0.4,0-0.7-0.3-0.7-0.7c0-0.4,0.3-0.7,0.7-0.7
									C461.2,98.8,461.5,99.1,461.5,99.4z"/>
								<path class="st102" d="M465,99.4c0,0.4-0.3,0.7-0.7,0.7c-0.4,0-0.7-0.3-0.7-0.7c0-0.4,0.3-0.7,0.7-0.7
									C464.7,98.8,465,99.1,465,99.4z"/>
							</g>
						</g>
					</g>
				</g>
				<rect x="445.9" y="91.9" class="st98" width="2.7" height="4.8"/>
				<polygon class="st98" points="447.8,91.9 446.6,91.9 447.1,87.1 447.3,87.1 				"/>
				<g>
					<g>
						<path class="st108" d="M451.1,82.2c-1.3-1-2.9-1.4-4.4-1.1l0.2,1c1.2-0.2,2.5,0.1,3.6,0.9c1,0.8,1.6,2,1.7,3.3l1,0
							C453.1,84.7,452.4,83.2,451.1,82.2z"/>
						<path class="st108" d="M449.9,83.7c-0.8-0.7-1.8-0.9-2.8-0.7l0.2,0.9c0.7-0.1,1.4,0,2,0.5c0.6,0.5,0.9,1.2,0.9,1.9l0.9,0
							C451.1,85.3,450.7,84.3,449.9,83.7z"/>
						<path class="st108" d="M448.7,85.2c-0.4-0.3-0.8-0.4-1.3-0.3l0.3,1.5l1.6-0.1C449.2,85.9,449,85.5,448.7,85.2z"/>
						<path class="st98" d="M448.7,85.2c0.4,0.3,0.6,0.7,0.6,1.2l1,0c0-0.7-0.4-1.4-0.9-1.9c-0.6-0.5-1.3-0.6-2-0.5l0.2,1
							C447.8,84.8,448.3,84.9,448.7,85.2z"/>
						<path class="st98" d="M449.9,83.7c0.8,0.7,1.3,1.6,1.3,2.6l1,0c-0.1-1.2-0.6-2.5-1.7-3.3c-1-0.8-2.3-1.1-3.6-0.9l0.2,1
							C448,82.8,449.1,83,449.9,83.7z"/>
						<path class="st98" d="M451.1,82.2c1.3,1,2,2.5,2,4l1,0c-0.1-1.8-0.9-3.5-2.4-4.7c-1.5-1.2-3.4-1.6-5.2-1.3l0.2,1
							C448.2,80.8,449.8,81.1,451.1,82.2z"/>
					</g>
				</g>
				<path class="st98" d="M447.6,87c0,0.2-0.2,0.4-0.4,0.4c-0.2,0-0.4-0.2-0.4-0.4c0-0.2,0.2-0.4,0.4-0.4
					C447.4,86.6,447.6,86.8,447.6,87z"/>
			</g>
		</g>
		<path class="st0" d="M372.6,143.1c-0.9-0.3-1.3-1.3-1-2.2c0.3-0.9,1.3-1.3,2.2-1c0.9,0.3,1.3,1.3,1,2.2S373.5,143.4,372.6,143.1z"
			/>
		<path class="st0" d="M361.8,171.6c-0.9-0.3-1.3-1.3-1-2.2c0.3-0.9,1.3-1.3,2.2-1c0.9,0.3,1.3,1.3,1,2.2
			C363.7,171.5,362.7,172,361.8,171.6z"/>
		<g>
			<g>
				<path class="st0" d="M316.7,240.8c1.9,0,1.9-2.9,0-2.9C314.8,237.9,314.8,240.8,316.7,240.8L316.7,240.8z"/>
			</g>
		</g>
		<g>
			<g>
				<path class="st0" d="M250,307.1c1.9,0,1.9-2.9,0-2.9C248.1,304.2,248.1,307.1,250,307.1L250,307.1z"/>
			</g>
		</g>
		<g>
			<g>
				<path class="st0" d="M401.4,289.9c1.9,0,1.9-2.9,0-2.9C399.5,287,399.5,289.9,401.4,289.9L401.4,289.9z"/>
			</g>
		</g>
		<g>
			<g>
				<path class="st0" d="M371.2,297.2c3.7,0,3.7-5.8,0-5.8C367.4,291.4,367.4,297.2,371.2,297.2L371.2,297.2z"/>
			</g>
		</g>
		<g>
			<g>
				<path class="st0" d="M207.9,293.5c3.7,0,3.7-5.8,0-5.8C204.2,287.7,204.2,293.5,207.9,293.5L207.9,293.5z"/>
			</g>
		</g>
		<g>
			<g>
				<path class="st0" d="M128.4,275.6c3.7,0,3.7-5.8,0-5.8C124.6,269.8,124.6,275.6,128.4,275.6L128.4,275.6z"/>
			</g>
		</g>
		<g>
			<g>
				<path class="st0" d="M232.2,93.8c1.9,0,1.9-2.9,0-2.9C230.3,90.9,230.3,93.8,232.2,93.8L232.2,93.8z"/>
			</g>
		</g>
		<g>
			<g>
				<path class="st0" d="M82.6,224.5c2,0,3.9-1.8,3.8-3.8c-0.1-2.1-1.7-3.8-3.8-3.8c-2,0-3.9,1.8-3.8,3.8
					C78.8,222.7,80.4,224.5,82.6,224.5L82.6,224.5z"/>
			</g>
		</g>
		<g>
			<g>
				<path class="st0" d="M376.9,102.4c1.9,0,1.9-2.9,0-2.9C375,99.5,375,102.4,376.9,102.4L376.9,102.4z"/>
			</g>
		</g>
		<g>
			<g>
				<path class="st0" d="M232.1,213.2c1.9,0,1.9-2.9,0-2.9C230.2,210.3,230.2,213.2,232.1,213.2L232.1,213.2z"/>
			</g>
		</g>
		<g>
			<g>
				<path class="st0" d="M457.7,292.1c3.7,0,3.7-5.8,0-5.8C454,286.3,453.9,292.1,457.7,292.1L457.7,292.1z"/>
			</g>
		</g>
		<g>
			<g>
				<path class="st0" d="M528.5,294.3c3.7,0,3.7-5.8,0-5.8C524.8,288.4,524.8,294.3,528.5,294.3L528.5,294.3z"/>
			</g>
		</g>
		<g>
			<g>
				<path class="st0" d="M593.4,303.4c1.9,0,1.9-2.9,0-2.9C591.6,300.5,591.6,303.4,593.4,303.4L593.4,303.4z"/>
			</g>
		</g>
		<g>
			<g>
				<path class="st0" d="M625.5,245c3.7,0,3.7-5.8,0-5.8C621.8,239.2,621.8,245,625.5,245L625.5,245z"/>
			</g>
		</g>
		<g>
			<g>
				<path class="st0" d="M606.6,214.3c3.7,0,3.7-5.8,0-5.8C602.9,208.5,602.8,214.3,606.6,214.3L606.6,214.3z"/>
			</g>
		</g>
		<g>
			<g>
				<path class="st0" d="M558.5,209.1c3.7,0,3.7-5.8,0-5.8C554.8,203.3,554.8,209.1,558.5,209.1L558.5,209.1z"/>
			</g>
		</g>
		<g>
			<g>
				<path class="st0" d="M515,193.6c3.7,0,3.7-5.8,0-5.8C511.3,187.8,511.3,193.6,515,193.6L515,193.6z"/>
			</g>
		</g>
		<g>
			<g>
				<path class="st0" d="M492.6,81.4c3.7,0,3.7-5.8,0-5.8C488.9,75.6,488.9,81.4,492.6,81.4L492.6,81.4z"/>
			</g>
		</g>
		<g>
			<g>
				<path class="st0" d="M541.9,46.6c3.7,0,3.7-5.8,0-5.8C538.2,40.8,538.2,46.6,541.9,46.6L541.9,46.6z"/>
			</g>
		</g>
		<g>
			<g>
				<path class="st0" d="M486.3,46.1c3.7,0,3.7-5.8,0-5.8C482.6,40.3,482.6,46.1,486.3,46.1L486.3,46.1z"/>
			</g>
		</g>
		<g>
			<g>
				<path class="st0" d="M628.1,95.2c1.9,0,1.9-2.9,0-2.9C626.2,92.3,626.2,95.2,628.1,95.2L628.1,95.2z"/>
			</g>
		</g>
	</g>
	<path class="st0" d="M489.2,338.8c-0.3,1.5-1.7,2.4-3.2,2.1c-1.5-0.3-2.4-1.7-2.1-3.2c0.3-1.5,1.7-2.4,3.2-2.1
		C488.5,335.9,489.5,337.3,489.2,338.8z"/>
	<g>
		<g>
			<path class="st0" d="M308.2,352.3c3.9,0,3.9-6,0-6C304.4,346.3,304.4,352.3,308.2,352.3L308.2,352.3z"/>
		</g>
	</g>
	<path class="st0" d="M377.6,339.1c-0.5,2.3-2.7,3.8-5,3.4c-2.3-0.5-3.8-2.7-3.4-5c0.5-2.3,2.7-3.8,5-3.4
		C376.5,334.5,378,336.8,377.6,339.1z"/>
	<g>
		<g>
			<path class="st0" d="M147.3,341.1c3.9,0,3.9-6,0-6C143.4,335.1,143.4,341.1,147.3,341.1L147.3,341.1z"/>
		</g>
	</g>
</g>
<g id="BACKGROUND_1">
</g>
<g id="DESIGNED_BY_FREEPIK">
</g>
</svg>
